<?xml version="1.0" encoding="UTF-8"?>
<svg version="1.1" xmlns="http://www.w3.org/2000/svg" width="512" height="512">
<path d="M0 0 C0.97453125 0.54398438 1.9490625 1.08796875 2.953125 1.6484375 C30.27530046 18.0257649 46.23956207 44.72091199 54 75 C54.85701189 78.65944076 55.53396394 82.27171148 56 86 C56.16435547 87.22203125 56.16435547 87.22203125 56.33203125 88.46875 C59.84959407 119.61090616 55.44252622 154.33389233 35.8125 179.5625 C19.61935421 198.76139694 -4.02529782 207.89711249 -28.47143555 210.8059082 C-33.80650205 211.2154262 -39.15837007 211.185921 -44.50634766 211.18530273 C-46.59949581 211.18747355 -48.69210197 211.20563537 -50.78515625 211.22460938 C-69.19262417 211.30737921 -69.19262417 211.30737921 -77 209 C-79.48858537 206.49487595 -79.96917985 205.50339574 -80.1875 201.9375 C-79 199 -79 199 -75.75 197.4375 C-74.1691472 196.95021204 -72.58541012 196.47224982 -71 196 C-53.95591544 190.01505428 -40.24522911 182.03192591 -31.69140625 165.5703125 C-23.5869267 148.46293534 -23.19514241 131.76037692 -29.03125 113.83203125 C-34.99254757 98.26418321 -44.87309551 88.68780344 -59.53515625 81.48046875 C-76.90798345 74.05735544 -97.59505422 76.82999277 -115 83 C-151.44507251 98.01116861 -165.03770475 139.43132319 -179.4375 172.875 C-203.33034768 228.32734479 -230.45833572 289.17225152 -287 318 C-287.65774414 318.33628418 -288.31548828 318.67256836 -288.99316406 319.01904297 C-310.65025757 329.85777171 -334.13808318 334.43323704 -358.25 334.3125 C-358.96835022 334.31134186 -359.68670044 334.31018372 -360.42681885 334.30899048 C-388.64574127 334.21913629 -388.64574127 334.21913629 -394.91796875 329.58203125 C-396.68370064 327.00036549 -396.44059052 325.02119215 -396 322 C-394.21841029 319.94285775 -392.81598642 319.07298031 -390.08374023 318.82861328 C-387.71745466 318.84901455 -385.36356382 318.94813773 -383 319.0625 C-363.24898902 319.48007682 -347.36390336 308.84775636 -333.40234375 295.6171875 C-325.46390878 287.95045193 -318.34050323 280.04039898 -312 271 C-311.40010254 270.15066895 -311.40010254 270.15066895 -310.78808594 269.28417969 C-297.26503089 249.97929587 -286.64291129 228.97437971 -276 208 C-275.50055878 207.0175531 -275.50055878 207.0175531 -274.99102783 206.01525879 C-267.71462073 191.70071374 -260.55267124 177.35570845 -253.875 162.75 C-234.43666735 120.35978203 -214.01007451 75.87282944 -182.07421875 41.26171875 C-180.19878414 39.21675333 -178.40967467 37.12380525 -176.625 35 C-151.75509562 6.74643516 -112.76213309 -13.06355386 -75.17529297 -15.87109375 C-48.45455391 -17.45454495 -23.45643882 -13.13717124 0 0 Z M-173 48 C-203.67819622 82.74950824 -224.06409818 126.06034375 -243.26147461 167.80883789 C-247.01589236 175.95221486 -250.93115088 183.99547597 -254.98364258 191.99414062 C-257.72948791 197.42318843 -260.38109622 202.88619436 -262.96826172 208.39257812 C-277.96046796 240.26122721 -295.04531494 271.90398259 -319 298 C-319.48436523 298.52964355 -319.96873047 299.05928711 -320.46777344 299.60498047 C-327.04826588 306.71076941 -334.04985207 312.51403537 -342.06640625 317.94140625 C-344.3240719 319.52568028 -346.17108585 320.96281092 -348 323 C-318.21417466 322.39212601 -288.11521413 309.70455098 -266 290 C-264.76056641 288.94039063 -264.76056641 288.94039063 -263.49609375 287.859375 C-226.32105876 255.51302217 -205.82589084 205.38852255 -186.79150391 161.10913086 C-166.46623139 113.82850001 -166.46623139 113.82850001 -152 96 C-151.525625 95.36191406 -151.05125 94.72382813 -150.5625 94.06640625 C-137.34125518 77.02831397 -115.61555372 69.4420079 -95.06640625 66.421875 C-75.05526767 64.10530862 -55.37449695 66.87553984 -38.9296875 79.32421875 C-24.9790536 91.43124027 -15.36451458 109.09139981 -13.77246094 127.65283203 C-12.62475226 148.72664012 -16.27286807 168.23340011 -30.5 184.5 C-35.94682926 190.15343313 -41.8680775 195.11560656 -48 200 C-30.06312518 199.62553497 -13.50496477 197.44255706 3 190 C3.93070312 189.58234375 4.86140625 189.1646875 5.8203125 188.734375 C21.53952591 180.94194442 32.38906226 167.00038554 39 151 C43.76156439 136.59041333 45.39591721 122.0124025 45.375 106.875 C45.37445618 106.20290497 45.37391235 105.53080994 45.37335205 104.83834839 C45.26120136 74.50966272 35.13385337 47.0826477 14.25 24.8125 C-9.37708711 2.36676724 -38.6948585 -4.74555668 -70.48828125 -4.30859375 C-109.94704623 -3.11706858 -146.82249734 19.48788135 -173 48 Z " fill="#000000" transform="translate(401,96)"/>
<path d="M0 0 C1.6387207 -0.01160156 1.6387207 -0.01160156 3.31054688 -0.0234375 C8.64267361 -0.01045606 13.21721924 0.06411736 18.1875 2.25 C18.875 5.5625 18.875 5.5625 19.1875 9.25 C17.35520792 11.57523295 15.2414075 12.9319258 12.66796875 14.34375 C11.9824292 14.72837402 11.29688965 15.11299805 10.59057617 15.50927734 C9.49386597 16.12343506 9.49386597 16.12343506 8.375 16.75 C-12.89607069 29.00637148 -32.71540364 46.30233206 -40.48828125 70.33984375 C-44.85413137 86.76375611 -40.03718671 102.03133872 -31.8125 116.25 C-29.68023255 119.46043429 -27.37527689 122.37455316 -24.8125 125.25 C-24.23113281 125.92417969 -23.64976562 126.59835937 -23.05078125 127.29296875 C-1.92270051 150.1927963 34.33330441 154.72339272 63.625 156 C96.13388707 157.07729255 129.35978261 153.71637595 161.06762695 146.41845703 C165.95410668 145.32473233 171.20819186 144.31174698 176.1875 145.25 C178.33893881 148.47715822 178.67209024 149.50643949 178.1875 153.25 C173.08657293 159.43096284 163.74724377 162.8757228 156.75 166.4375 C156.11267944 166.76359253 155.47535889 167.08968506 154.81872559 167.42565918 C100.34108686 195.2451084 33.84104083 217.80418502 -27.19140625 198.890625 C-40.27725258 194.4651573 -53.2553297 188.23595265 -63.8125 179.25 C-64.64523437 178.54230469 -65.47796875 177.83460938 -66.3359375 177.10546875 C-68.87997971 174.87062552 -71.3508707 172.57508885 -73.8125 170.25 C-75.04806641 169.12851562 -75.04806641 169.12851562 -76.30859375 167.984375 C-92.71269586 152.52715554 -104.21830876 129.91482501 -105.05078125 107.23046875 C-105.58760405 79.14321967 -96.93157839 54.39878852 -77.47265625 33.625 C-71.13078123 27.03676251 -64.73855452 20.90393159 -56.8125 16.25 C-56.21099121 15.89599121 -55.60948242 15.54198242 -54.98974609 15.17724609 C-37.65500694 5.12183361 -20.13752399 -0.14513531 0 0 Z M-58.8125 32.25 C-59.79734375 33.06082031 -60.7821875 33.87164062 -61.796875 34.70703125 C-79.2859168 49.61508499 -91.30568499 71.31996763 -93.53686523 94.28149414 C-95.24251448 117.27873252 -87.00794094 137.55615402 -72.5625 155 C-53.36036183 177.22376019 -25.42347244 190.70451366 3.82666016 193.10498047 C48.94112963 195.87623123 91.22729893 183.14085684 132.1875 165.25 C132.1875 164.92 132.1875 164.59 132.1875 164.25 C130.49985967 164.37309085 128.81240446 164.49871683 127.125 164.625 C125.91070312 164.71394531 124.69640625 164.80289063 123.4453125 164.89453125 C120.51452426 165.1239512 117.59977615 165.42307729 114.6796875 165.76171875 C87.16592016 168.79043684 57.43932575 169.52685165 30.1875 164.25 C29.27291016 164.07307617 28.35832031 163.89615234 27.41601562 163.71386719 C2.0702064 158.60766554 -22.8139799 148.56241577 -38.8125 127.25 C-50.12074539 109.98543278 -56.74570138 91.14179228 -52.41064453 70.31982422 C-46.83566697 46.79585544 -29.69588335 26.96629413 -9.4296875 14.34375 C-8.89601563 13.9828125 -8.36234375 13.621875 -7.8125 13.25 C-7.8125 12.92 -7.8125 12.59 -7.8125 12.25 C-25.69125209 10.79051003 -45.47443485 21.12828998 -58.8125 32.25 Z " fill="#000000" transform="translate(328.8125,226.75)"/>
</svg>
