<svg id="Layer_1" data-name="Layer 1" xmlns="http://www.w3.org/2000/svg" viewBox="0 0 523 551"><defs><style>.cls-1{fill:#352f75;}.cls-2{fill:#fff;}.cls-3{fill:#ffb700;}.cls-4{fill:#9364ed;}.cls-5{fill:#e2209e;}.cls-6{fill:#2e2865;}.cls-7{fill:#5e1dbb;}.cls-8{fill:#fd8753;}.cls-9{fill:#07cbf5;}</style></defs><title>Artboard 4 copy</title><path class="cls-1" d="M284.59,204.77V312.34c0,3.27,3,5.94,6.79,5.94H507.24c3.73,0,6.76-2.66,6.76-5.94V204.77c0-3.27-3-5.94-6.76-5.94H291.38C287.63,198.84,284.59,201.5,284.59,204.77Z"/><path class="cls-2" d="M284.59,206.79v8.43H514v-8.43c0-4.38-3-8-6.76-8H291.38C287.63,198.84,284.59,202.4,284.59,206.79Z"/><circle class="cls-3" cx="476.36" cy="207.03" r="3.9"/><circle class="cls-4" cx="488.84" cy="207.03" r="3.9"/><circle class="cls-5" cx="501.32" cy="207.03" r="3.9"/><path class="cls-6" d="M183.9,57.14v82c0,2.5-2.31,4.53-5.17,4.53H14.16c-2.84,0-5.16-2-5.16-4.53v-82c0-2.5,2.31-4.53,5.16-4.53H178.72C181.58,52.61,183.9,54.64,183.9,57.14Z"/><path class="cls-2" d="M183.9,58.68V65.1H9V58.68c0-3.34,2.31-6.06,5.16-6.06H178.72C181.58,52.61,183.9,55.33,183.9,58.68Z"/><circle class="cls-3" cx="37.7" cy="58.86" r="2.97"/><circle class="cls-5" cx="28.18" cy="58.86" r="2.97"/><circle class="cls-7" cx="18.67" cy="58.86" r="2.97"/><polygon class="cls-8" points="133.83 382.53 96.45 376.93 102.41 336.02 135.35 338.28 133.83 382.53"/><path class="cls-8" d="M362.64,126.7s31,.53,36.65,0,0-4.55,0-4.55,10.7-1.07,7-4-39.13-3.59-47.09-2.46-19.53,2.73-19.53,2.73Z"/><path class="cls-3" d="M242.25,105.63s18.72.73,23.54,2.34,38.79,19.91,44.95,19.91,31.57-16.16,31.57-16.16l37.46,21.4S356.49,180.74,319.3,185s-51.64-11-51.64-11Z"/><polygon class="cls-8" points="274.61 442.96 271.58 480.64 230.36 477.5 230.36 444.48 274.61 442.96"/><path class="cls-5" d="M287.63,223.52s24.56,62.07,24.06,118.13-17.48,116.71-17.48,116.71l-74.54,1.41s12.52-59.52,13.59-73.22,3.86-100.48,3.86-100.48l.81-59Z"/><path class="cls-5" d="M196.34,205.15s-7.76,45.51-10.86,71.88c-2.09,17.75-16.61,36.26-33.3,41.72a242.1,242.1,0,0,1-32.53,8l-2.14,64.77s56.37,15.11,96-9.68,37-76.44,37-76.44l2.94-83.3Z"/><path class="cls-3" d="M230.3,105.77c27.78-2.69,50.86,16.8,54.63,44.46l2.24,16.46s7.29,54.65,6.08,56.76-26.42,7.55-50.81,6.34-43.87-3.52-45.08-4.42c-.35-.26-11.63-10.57-11.49-24.55.32-33.92,18-90.88,18-91.52C203.86,108.86,215.4,107.21,230.3,105.77Z"/><path class="cls-7" d="M235.25,360.39a.77.77,0,0,1-.61-1.26c35.7-45.2,18.9-111.65,18.72-112.31a.77.77,0,0,1,.12-.64.78.78,0,0,1,.56-.33l22.62-2.18a.76.76,0,0,1,.85.7.78.78,0,0,1-.7.85l-21.73,2.1c1.88,8.09,14.7,69.83-19.22,112.78A.78.78,0,0,1,235.25,360.39Z"/><path class="cls-7" d="M200.28,247h-.81a.78.78,0,0,1-.75-.8.71.71,0,0,1,.8-.75h.78c12.65,0,13.83-9.3,13.88-9.7a.74.74,0,0,1,.86-.69.78.78,0,0,1,.69.85C215.69,236,214.36,247,200.28,247Z"/><path class="cls-7" d="M182.86,319.52a4.1,4.1,0,0,1-2.43-.83c-4.59-3.3-6.32-16-6.39-16.56a.78.78,0,0,1,1.33-.64c1.94,2,11.58,12.23,10.3,16.3a2.43,2.43,0,0,1-2,1.66A4,4,0,0,1,182.86,319.52ZM176,304.42c.82,4.32,2.61,11,5.35,13a2.47,2.47,0,0,0,2,.49c.72-.14.82-.46.87-.6C184.87,315.17,180.06,308.9,176,304.42Z"/><path class="cls-7" d="M224.3,514.88c1.38,2.41,17.89.14,19.32.53s5.48-9.25,8.19-7.81,6,5.93,10,8c3.72,1.92,64.87,1.46,76.71-.18a1.82,1.82,0,0,0,1.46-2.17,66.31,66.31,0,0,0-3.48-12.75c-1.8-4.55-4.39-9.13-8.05-11.88-9.49-7.2-29.36-10-36.58-14.81s-15.34-16.39-19.65-14.18-12.4,12.34-24.14,10.93-17.16-4.27-20.31-1.38c-2,1.82-3.38,18.62-3.8,31.32C223.71,507.94,223.79,514,224.3,514.88Z"/><path class="cls-2" d="M233.58,66.36s16.07.77,17-14.64c1-16.4-14.21-18-20.65-11.34s-5.25,13.38-5.25,13.38-4.49-4-9.39.92c-3.6,3.65-1.74,9.62-1.74,9.62S205.23,64,206,71.21A16.15,16.15,0,0,0,212,82.12Z"/><path class="cls-8" d="M218.89,94.73l1.67,17.07s3.56,4.61,13.63,4.44c7.5-.12,9.95-2.06,9.95-2.06l-1.88-8.54-1.85-8.33L222,95.1Z"/><path d="M222,95.1a5.65,5.65,0,0,0,.66,1.6c4.65,8.15,15.28,9,19.61,8.94l-1.85-8.33Z"/><path class="cls-8" d="M240.41,58s11.05,20.53,8.68,32.77S235.67,102,229,100.26a21.66,21.66,0,0,1-10.07-5.53A9.22,9.22,0,0,1,208.43,92c-4.54-5.33-2.57-12,.79-13.82s7.7.39,7.7.39l-3.75-5.92S224.22,40.06,240.41,58Z"/><path d="M217.12,87.92a.76.76,0,0,1-.39-.1L208.5,83a.78.78,0,0,1,.78-1.34l8.23,4.78a.78.78,0,0,1-.39,1.45Z"/><path d="M210.1,88.51a.78.78,0,0,1-.27-1.5l4.94-1.8a.78.78,0,1,1,.53,1.46l-4.94,1.8A.79.79,0,0,1,210.1,88.51Z"/><path d="M226.92,68.52a.78.78,0,0,1-.44-1.41,13,13,0,0,1,6.1-2.27.78.78,0,0,1,.81.73.77.77,0,0,1-.73.82,11.64,11.64,0,0,0-5.3,2A.78.78,0,0,1,226.92,68.52Z"/><path d="M239.9,66.09a.78.78,0,0,1-.29-1.49,5.84,5.84,0,0,1,4.08,0,.78.78,0,0,1-.59,1.44,4.3,4.3,0,0,0-2.91,0A.78.78,0,0,1,239.9,66.09Z"/><path d="M241.11,85.53a.77.77,0,0,1-.67-1.17c2.7-4.57-2.53-10.22-2.58-10.28A.78.78,0,0,1,239,73c.25.26,6.07,6.57,2.78,12.13A.77.77,0,0,1,241.11,85.53Z"/><path d="M244.13,74.3a.77.77,0,0,1-.72-.5L242,70a.77.77,0,0,1,1.45-.55l1.45,3.81a.78.78,0,0,1-.72,1.05Z"/><path d="M233.34,75.57a.78.78,0,0,1-.72-.5l-1.45-3.81a.77.77,0,1,1,1.45-.55l1.45,3.81a.77.77,0,0,1-.45,1A.8.8,0,0,1,233.34,75.57Z"/><path class="cls-2" d="M242.67,62.66a7.24,7.24,0,0,0-6.45-2.86,9.25,9.25,0,0,0-6.45,3.63s2.57,7-2.85,11.36-10,3.75-10,3.75l-4.35-1.09-3.68-5.84,10.87-14.28,14.92-9.84L243.4,54Z"/><path class="cls-2" d="M234.39,116.42a26.36,26.36,0,0,1-15.88-5.22.78.78,0,0,1,.92-1.25c13.16,9.67,27.37,2.14,27.51,2.06a.79.79,0,0,1,1.05.31.78.78,0,0,1-.31,1.05A30.73,30.73,0,0,1,234.39,116.42Z"/><path class="cls-2" d="M293.21,481.42a.77.77,0,0,1-.14-1.54c4.89-.91,18-4.23,19.7-8.56.12-.29.13-.48,0-.58-1.35-1.43-11.78.86-20.69,3.8a.78.78,0,0,1-.94-.39.78.78,0,0,1,.26-1c3.42-2.33,12.4-9.27,12.92-13.3a1.78,1.78,0,0,0-.4-1.49,1.2,1.2,0,0,0-1.13-.47c-4.08.09-13,10.26-16.11,14.18a.78.78,0,0,1-1.22-1c1.19-1.5,11.74-14.65,17.29-14.77a3,3,0,0,1,2.34,1,3.31,3.31,0,0,1,.76,2.7c-.48,3.65-6,8.59-9.88,11.63,6.31-1.86,15.88-4.2,17.92-2a1.94,1.94,0,0,1,.27,2.22c-2.37,5.9-19,9.16-20.86,9.51Z"/><path class="cls-7" d="M65.53,327.42c-2.5,1.21-1.37,17.83-1.85,19.24s8.85,6.1,7.23,8.71-6.33,5.61-8.66,9.44c-2.17,3.58-5.9,64.62-5.07,76.54a1.82,1.82,0,0,0,2.06,1.6,66.32,66.32,0,0,0,13-2.6c4.67-1.48,9.4-3.76,12.4-7.22,7.84-9,12-28.6,17.28-35.48s17.4-14.18,15.5-18.63-11.46-13.22-9.25-24.83,5.43-16.83,2.76-20.17c-1.68-2.1-18.34-4.65-31-5.94C72.5,327.31,66.46,327,65.53,327.42Z"/><path class="cls-2" d="M103.36,420.34a2.56,2.56,0,0,1-1.11-.28c-5.72-2.77-7.83-19.56-8.05-21.46a.77.77,0,1,1,1.54-.18c.58,4.94,3,18.21,7.19,20.24.28.14.47.16.57.08,1.51-1.24-.05-11.81-2.37-20.9a.78.78,0,0,1,1.42-.58c2.09,3.57,8.4,13,12.38,13.8a1.78,1.78,0,0,0,1.51-.29,1.34,1.34,0,0,0,.54-1.1c.19-4.08-9.35-13.68-13-17a.77.77,0,0,1,1-1.15c1.41,1.29,13.81,12.72,13.55,18.26a2.91,2.91,0,0,1-1.16,2.27,3.33,3.33,0,0,1-2.75.57c-3.61-.73-8.16-6.59-10.93-10.66,1.42,6.42,3.1,16.12.79,18A1.75,1.75,0,0,1,103.36,420.34Z"/><path class="cls-8" d="M211.85,174.9s2.54-7.26,3.52-9.58.53-10.17,3.33-11.48,3.67,11.3,3.67,11.3,16.6-18.77,19.68-17.91-4,13.55-4,13.55,12.43-13.46,14.79-11-8.21,15.8-8.21,15.8,9.47-8.13,11.34-5.5-13.27,23.32-13.27,23.32S234,205,222,201.88,211.85,174.9,211.85,174.9Z"/><path d="M237.16,92.16c-2.16,0-3.65-3.44-3.93-4.14a.77.77,0,0,1,.88-1l6.26,1.37a.78.78,0,0,1,.51,1.14C240.73,89.77,239.29,92.16,237.16,92.16Zm-1.79-3.32c.56.94,1.26,1.77,1.79,1.77a2.6,2.6,0,0,0,1.71-1Z"/><path d="M399.3,122.93a.81.81,0,0,1-.28,0c-.1,0-9.89-3.71-17.7-4.23a.77.77,0,0,1-.15-1.52l5.89-1.63a.77.77,0,0,1,1,.54.78.78,0,0,1-.54,1l-2.09.58a84.26,84.26,0,0,1,14.19,3.86.78.78,0,0,1-.28,1.5Z"/><polygon class="cls-4" points="428.2 111.52 301.91 111.52 328.16 101.88 454.44 101.88 428.2 111.52"/><rect class="cls-2" x="301.91" y="111.52" width="126.82" height="5.29"/><polygon class="cls-3" points="454.44 101.88 454.44 107.73 428.73 116.81 428.73 111.52 454.44 101.88"/><path class="cls-9" d="M328.16,101.88,352,35.54a2.08,2.08,0,0,1,2-1.38H471.69a2.08,2.08,0,0,1,2,2.67l-19.24,65Z"/><path class="cls-2" d="M342.47,90.42l17.7-49.28a1.66,1.66,0,0,1,1.57-1.1H455.8a1.66,1.66,0,0,1,1.59,2.14l-14.78,50a2.78,2.78,0,0,1-2.67,2H345.09A2.78,2.78,0,0,1,342.47,90.42Z"/><rect class="cls-6" x="366.92" y="48.06" width="55.65" height="3.22"/><rect class="cls-6" x="363.71" y="56.76" width="55.65" height="3.22"/><path class="cls-3" d="M203.86,109.29s-37.07,15-59.45,51.21c-20.65,33.4-21,62.78,13.91,71.35s70-25.33,70-25.33L210.1,169.78,201.85,173Z"/><path d="M220.84,171.92l-.16,0a.65.65,0,0,1-.48-.79l1.53-6.13a.65.65,0,1,1,1.27.32l-1.53,6.13A.65.65,0,0,1,220.84,171.92Z"/><path d="M242.25,168.85a.65.65,0,0,1-.49-1.09l2.36-2.68a.65.65,0,1,1,1,.87l-2.36,2.68A.66.66,0,0,1,242.25,168.85Z"/><path d="M235.56,164a.64.64,0,0,1-.45-.18.65.65,0,0,1,0-.92l2.48-2.58a.65.65,0,0,1,.94.91L236,163.81A.66.66,0,0,1,235.56,164Z"/><rect class="cls-6" x="328.16" y="232.04" width="62.18" height="49.86"/><rect class="cls-7" x="375.96" y="252.83" width="62.18" height="49.86"/><rect class="cls-7" x="25.21" y="82.12" width="94.24" height="5.62"/><rect class="cls-7" x="25.21" y="97.04" width="94.24" height="5.62"/><rect class="cls-7" x="25.21" y="111.96" width="94.24" height="5.62"/><rect class="cls-9" x="129.8" y="82.36" width="39.53" height="35.21"/><path class="cls-2" d="M289.41,184.87a.78.78,0,0,1-.77-.65l-3.29-20.74a.78.78,0,0,1,1.53-.24L290.18,184a.78.78,0,0,1-.64.89Z"/><path class="cls-2" d="M161.19,184.87a.77.77,0,0,1-.65-.36.77.77,0,0,1,.24-1.07C177.26,173,201.58,169,201.83,169a.75.75,0,0,1,.89.64.78.78,0,0,1-.64.89c-.24,0-24.26,4-40.47,14.23A.77.77,0,0,1,161.19,184.87Z"/><path class="cls-2" d="M166.46,178.13c-3.16,0-5.79-.41-6.48-1.56-.25-.42-.51-1.3.67-2.44,4.44-4.28,18.27.61,18.85.82a.78.78,0,0,1,0,1.47A52.69,52.69,0,0,1,166.46,178.13Zm.08-4.21c-2.05,0-3.81.36-4.82,1.33-.39.37-.41.56-.41.56.67,1.18,9.38.95,15.12-.2A38.93,38.93,0,0,0,166.54,173.92Z"/><path class="cls-2" d="M313.78,142.94h-.2a2.8,2.8,0,0,1-2-1.07c-2.65-3.17-1.76-13-1.65-14.06a.78.78,0,0,1,1.47-.27c1,2,5.73,12,3.92,14.62A1.82,1.82,0,0,1,313.78,142.94Zm-2.46-12c-.11,3.49.08,8.21,1.49,9.89a1.28,1.28,0,0,0,.9.52c.26,0,.33-.06.36-.11C314.78,140.23,313.33,135.57,311.32,131Z"/><path class="cls-2" d="M201.95,225.54a.78.78,0,0,1-.36-1.46c.18-.1,18.26-9.76,23.93-17.51a.78.78,0,0,1,1.25.91c-5.88,8-23.7,17.56-24.46,18A.76.76,0,0,1,201.95,225.54Z"/></svg>