<svg id="Layer_1" data-name="Layer 1" xmlns="http://www.w3.org/2000/svg" viewBox="0 0 523 551"><defs><style>.cls-1{fill:#5e1dbb;}.cls-2{fill:#352f75;}.cls-3{fill:#fff;}.cls-4{fill:#ffb700;}.cls-5{fill:#9364ed;}.cls-6{fill:#07cbf5;}.cls-7{fill:#fd8753;}.cls-8{fill:#e2209e;}</style></defs><title>Artboard 4 copy 6</title><path class="cls-1" d="M386.18,68.42H284.35a4.84,4.84,0,0,1-4.83-4.83V13.83A4.84,4.84,0,0,1,284.35,9H386.18A4.84,4.84,0,0,1,391,13.83V63.59A4.84,4.84,0,0,1,386.18,68.42Zm-101.83-58a3.4,3.4,0,0,0-3.4,3.4V63.59a3.4,3.4,0,0,0,3.4,3.4H386.18a3.4,3.4,0,0,0,3.4-3.4V13.83a3.4,3.4,0,0,0-3.4-3.4Z"/><path class="cls-1" d="M390.3,20.28H280.24a.72.72,0,0,1,0-1.43H390.3a.72.72,0,0,1,0,1.43Z"/><path class="cls-1" d="M379.14,17.09a.71.71,0,0,1-.36-1.33l5.86-3.46a.71.71,0,0,1,.73,1.23L379.51,17A.69.69,0,0,1,379.14,17.09Z"/><path class="cls-1" d="M385,17.09a.69.69,0,0,1-.36-.1l-5.86-3.46a.71.71,0,0,1-.25-1,.7.7,0,0,1,1-.25l5.86,3.46a.71.71,0,0,1-.36,1.33Z"/><path class="cls-2" d="M297.74,38.54V161.4a6.8,6.8,0,0,1-6.81,6.78H74.49a6.79,6.79,0,0,1-6.78-6.78V38.54a6.79,6.79,0,0,1,6.78-6.78H290.94A6.8,6.8,0,0,1,297.74,38.54Z"/><path class="cls-3" d="M297.74,38.54v7.19h-230V38.54a6.79,6.79,0,0,1,6.78-6.78H290.94A6.8,6.8,0,0,1,297.74,38.54Z"/><circle class="cls-4" cx="284.95" cy="38.75" r="3.59"/><circle class="cls-5" cx="273.44" cy="38.75" r="3.59"/><circle class="cls-1" cx="261.92" cy="38.75" r="3.59"/><rect class="cls-6" x="91.51" y="67.71" width="182.44" height="10.65"/><path class="cls-5" d="M171.54,100.69H97a.72.72,0,0,1,0-1.43h74.55a.72.72,0,1,1,0,1.43Z"/><path class="cls-5" d="M171.54,112.62H97a.72.72,0,0,1,0-1.43h74.55a.72.72,0,1,1,0,1.43Z"/><path class="cls-5" d="M171.54,124.55H97a.72.72,0,0,1,0-1.43h74.55a.72.72,0,1,1,0,1.43Z"/><path class="cls-5" d="M268.46,100.69H193.91a.72.72,0,1,1,0-1.43h74.55a.72.72,0,1,1,0,1.43Z"/><path class="cls-5" d="M268.46,112.62H193.91a.72.72,0,0,1,0-1.43h74.55a.72.72,0,1,1,0,1.43Z"/><path class="cls-5" d="M268.46,124.55H193.91a.72.72,0,0,1,0-1.43h74.55a.72.72,0,1,1,0,1.43Z"/><polygon class="cls-7" points="368.42 467.52 368.42 500.68 410.57 500.68 410.57 457.14 368.42 467.52"/><polygon class="cls-7" points="258.69 455.12 249.86 487.08 290.52 498.33 302.13 456.36 258.69 455.12"/><path class="cls-1" d="M379.95,112.3S390.76,94.11,408,103s15.38,27.17,28.49,31.37,23.85,15.51,16.23,30.09c-6.37,12.2-23.64,8.32-23.64,8.32s-10.73,18.28-29.71,12-27.63-16.11-25.64-31.84S379.95,112.3,379.95,112.3Z"/><path class="cls-1" d="M349.09,138.72s-10.26-15,10.51-26.78,35.89,4.38,36.06,13.08-4.78,12.73-4.78,12.73,1.93,18.85-16.17,17.55S349.09,138.72,349.09,138.72Z"/><path class="cls-7" d="M376.44,152.28l.38,15.23s-2.64,4.45-11.53,5.39c-6.62.71-9-.74-9-.74l.73-7.74.72-7.54,16-3.94Z"/><path d="M376.4,151.55A5,5,0,0,1,376,153c-3.22,7.69-15.13,11-19,11.39l.72-7.54Z"/><path class="cls-7" d="M353.5,122.26s-7.51,19.29-4.1,29.82,13.05,8.46,18.77,6.16a19.23,19.23,0,0,0,8.27-6,8.19,8.19,0,0,0,8.92-3.57c3.42-5.19,1-10.89-2.2-12.09s-6.74,1.18-6.74,1.18l2.66-5.63S365.81,104.67,353.5,122.26Z"/><path d="M352.29,147.15a.72.72,0,0,1-.71-.6c-1.07-6.47,1.47-9.9,1.58-10a.72.72,0,0,1,1.14.86s-2.27,3.13-1.3,8.95a.72.72,0,0,1-.59.82Z"/><path d="M376.85,145.61a.72.72,0,0,1-.34-1.35l7.42-3.95a.71.71,0,0,1,.67,1.26l-7.42,3.95A.72.72,0,0,1,376.85,145.61Z"/><path d="M383.76,147a.71.71,0,0,1-.47-.18l-3.57-3.12a.71.71,0,1,1,.94-1.08l3.57,3.12a.72.72,0,0,1-.47,1.25Z"/><path class="cls-1" d="M350.52,131.81a16.28,16.28,0,0,1,3.94-8.72c3.82-4.28,7.05-3.57,7.05-3.57s-5.64,12.34,3.85,16.69c6.75,3.09,11.07,1.59,11.07,1.59l9.66-9.59-19.21-15.6S349.35,110.15,350.52,131.81Z"/><path d="M357.05,151.06a.72.72,0,0,1-.23-1.39,6.58,6.58,0,0,0,3.11-2.73.7.7,0,0,1,1-.25.71.71,0,0,1,.25,1,7.92,7.92,0,0,1-3.87,3.35A.67.67,0,0,1,357.05,151.06Z"/><path d="M359,139.1l-.16,0a.72.72,0,0,1-.54-.86l.7-3.1-.93-1.46a.71.71,0,1,1,1.21-.77l1.09,1.72a.71.71,0,0,1,.1.54l-.77,3.39A.72.72,0,0,1,359,139.1Z"/><path d="M349.53,139l-.16,0a.72.72,0,0,1-.54-.86l.7-3.1-.93-1.46a.71.71,0,0,1,1.21-.77l1.09,1.72a.71.71,0,0,1,.09.54l-.77,3.39A.72.72,0,0,1,349.53,139Z"/><path d="M351.13,130.22a.71.71,0,0,1-.15-1.41l2.11-.45a.7.7,0,0,1,.85.55.71.71,0,0,1-.55.85l-2.11.45Z"/><polygon class="cls-5" points="276.72 161.06 242.45 182.08 204.05 130.68 238.32 109.65 276.72 161.06"/><polygon class="cls-3" points="281.15 158.61 246.88 179.63 208.48 128.22 242.75 107.2 281.15 158.61"/><path class="cls-1" d="M218.1,132.41a.71.71,0,0,1-.37-1.32l25.15-15.43a.71.71,0,1,1,.75,1.22L218.48,132.3A.71.71,0,0,1,218.1,132.41Z"/><path class="cls-1" d="M222.18,137.72a.72.72,0,0,1-.37-1.32L247,121a.71.71,0,1,1,.75,1.22l-25.15,15.43A.71.71,0,0,1,222.18,137.72Z"/><path class="cls-1" d="M226.16,143.08a.72.72,0,0,1-.37-1.32l25.15-15.43a.71.71,0,0,1,.75,1.22L226.54,143A.7.7,0,0,1,226.16,143.08Z"/><path class="cls-1" d="M230.15,148.44a.71.71,0,0,1-.37-1.32l25.15-15.43a.71.71,0,1,1,.75,1.22l-25.15,15.43A.71.71,0,0,1,230.15,148.44Z"/><polygon class="cls-7" points="317.73 134.36 354.88 183.85 319.21 204.7 296.12 143.54 317.73 134.36"/><path d="M362,131.08a.77.77,0,0,1-.23,0l-4.41-1.54a.72.72,0,1,1,.47-1.35l4.41,1.54a.72.72,0,0,1-.23,1.39Z"/><path class="cls-7" d="M263.94,183.44s-.8-14.11-5.06-19.7-11.71-9.93-13.31-6.7,3.46,7.92,2.66,9.84-6.12,1-14.11-1.89-13.31-12.09-13.31-12.09a14.61,14.61,0,0,0-1.06,7,15.52,15.52,0,0,0,1.6,5.1s-1.7-3.84-1.71,3.18c0,3.52,3,6,3,6s-2.4,2.89,2.66,9.28,19.17,12.25,19.17,12.25S260.21,234,286,244.14a52.5,52.5,0,0,0,46.06-3.46l-8-42.07S296.42,208.47,263.94,183.44Z"/><path d="M234,173h-.15c-6.34-1.33-13.29-8.51-13.58-8.82a.72.72,0,0,1,1-1c.07.07,6.94,7.17,12.84,8.4A.72.72,0,0,1,234,173Z"/><path d="M232.75,180c-7.4-1.24-10.52-5.2-10.65-5.37a.71.71,0,0,1,1.13-.87s2.95,3.69,9.64,4.82a.71.71,0,0,1-.12,1.42Z"/><path class="cls-4" d="M346.5,261.18S312.18,307.44,284,358.81s-43.87,115.63-43.87,115.63l72.21,4.47L364.82,352,349.38,477.22l69.83-2.44s15.11-116.27,7.05-171.12-17.51-66.39-17.51-66.39Z"/><path class="cls-3" d="M388.06,140.21a.7.7,0,0,1-.44-.16.71.71,0,0,1-.11-1c11.3-14.22-3.53-26.64-4.16-27.16a.71.71,0,1,1,.91-1.11c.17.14,16.56,13.83,4.37,29.16A.71.71,0,0,1,388.06,140.21Z"/><path class="cls-8" d="M306.94,199.15s27.48-30.75,60.67-32.75,44.36,14,46,21.57,4.39,61.9,2.4,65.49-15.61,10-37.76,11.58-33.73-1.2-35.32-2.4-3.59-18-3.59-18l-18.77,4.79Z"/><path class="cls-1" d="M376.45,152.28s-9.34,21,.38,29.36S401,184.58,401,184.58s4.88,3.13,14.21,0,13.89-11.8,13.89-11.8Z"/><path class="cls-7" d="M317.73,134.36s-9.33-14.64-14-17.86-30.83-13.5-33.42-11,12.7,13,12.7,13-2.63.57-3.27,2.68a4.86,4.86,0,0,0,.51,3.84s-3.26-.11-4.18,2.1.59,4.64.59,4.64,6,11,9.42,11.2,3-5.83,3-5.83,1.24,5.53,4.22,8.58,9.08,3.37,15.4,0S317.73,134.36,317.73,134.36Z"/><path d="M310.44,144c-7.17-.75-9.56-8.2-10.15-10.6-2.39.48-7.54,1.25-8.91-.51a2,2,0,0,1,0-2.29c2.11-4.2,11-8.11,11.36-8.27a.72.72,0,1,1,.57,1.31c-.09,0-8.77,3.86-10.65,7.6-.13.25-.25.59-.11.77.68.87,4.77.59,8.17-.15a.73.73,0,0,1,.55.1.71.71,0,0,1,.31.47c0,.09,1.77,9.38,9,10.14a.72.72,0,0,1-.08,1.43Z"/><path d="M292.8,130.39a.71.71,0,0,1-.22,0c-4.64-1.52-10-11.09-10.21-11.49a.72.72,0,1,1,1.25-.69c.05.09,5.29,9.48,9.4,10.83a.71.71,0,0,1-.22,1.39Z"/><path d="M291.09,138.4c-4.45,0-10.77-11.68-11.48-13a.71.71,0,0,1,1.26-.67c2.53,4.77,7.51,12.27,10.2,12.27a2.67,2.67,0,0,0,2.13-.9,3.81,3.81,0,0,0,.44-2.72A.72.72,0,0,1,295,133a5.22,5.22,0,0,1-.7,3.89,4,4,0,0,1-3.13,1.47Z"/><path class="cls-3" d="M339.28,245.39a.74.74,0,0,1-.71-.67c-.21-3.27-.71-14.06,1.63-15.41a1.46,1.46,0,0,1,1.61.12c3.51,2.34-.94,13.34-1.87,15.52A.72.72,0,0,1,339.28,245.39ZM341,230.63c-.86.34-1.31,5-1.17,10.6C341.43,236.69,342.51,231.62,341,230.63Z"/><path class="cls-3" d="M369.07,274.19a129.58,129.58,0,0,1-19.27-1.38.72.72,0,0,1,.23-1.41c.44.07,44.77,7,64.7-12.37a.72.72,0,1,1,1,1C403.77,271.69,383.89,274.19,369.07,274.19Z"/><path class="cls-3" d="M364.5,352.69a.72.72,0,0,1-.62-1.08c.1-.17,10.38-17.46,37-27.56a.71.71,0,1,1,.51,1.34c-26.07,9.91-36.13,26.78-36.23,26.95A.72.72,0,0,1,364.5,352.69Z"/><path class="cls-3" d="M425.4,313.84c-5.68,0-10.32-1.69-13.82-5-7.09-6.75-7-17.74-7-18.21A.71.71,0,0,1,405,290l17.62-7a.72.72,0,0,1,.53,1.33L406,291.1c.06,2.15.7,11.13,6.54,16.69,3.61,3.43,8.56,5,14.75,4.56a.65.65,0,0,1,.76.67.71.71,0,0,1-.66.76C426.73,313.82,426.06,313.84,425.4,313.84Z"/><path class="cls-3" d="M352.21,320.39a15.11,15.11,0,0,1-2.41-.2,10,10,0,0,1-7.53-5c-5.18-9.16,1.9-27.05,2.2-27.81a.73.73,0,0,1,.88-.42L372,295.21a.72.72,0,0,1,.49.83C372.45,296.29,367.31,320.39,352.21,320.39Zm-6.64-31.88c-1.2,3.23-6.38,18.31-2.05,26a8.64,8.64,0,0,0,6.51,4.31c14.2,2.31,20-18.48,20.93-22.4Z"/><path class="cls-3" d="M291.63,528.85s10.23-48,2.5-48.13-20.22,4.84-20.22,4.84-15.91-11.81-24.27-7.89-14.43,14.42-14.43,14.42L188.78,513s-6.35,7.34-5.51,11.63c.66,3.35,65.11,11.44,93.41,14.84,7.3.88,13.9-3.83,14.95-10.65Z"/><path class="cls-1" d="M230.51,506.81a.74.74,0,0,1-.22,0l-14.43-4.59a.72.72,0,1,1,.44-1.36l12.85,4.09-2.93-6.12a.72.72,0,0,1,.09-.77.73.73,0,0,1,.73-.24l16.6,4.3-9-9.5a.72.72,0,1,1,1-1l10.66,11.31a.71.71,0,0,1,.09.85.73.73,0,0,1-.79.33l-17.51-4.53,3,6.23a.72.72,0,0,1-.11.78A.71.71,0,0,1,230.51,506.81Z"/><path class="cls-3" d="M363.94,486.27s-27.54,45-22.79,50.54,38.31,6.32,53.62,3.87,21.19-4.29,22.35-8-6.11-50-6.11-50-6.75-7.6-16-5.64-23.73,9.11-23.73,9.11S367.69,480,363.94,486.27Z"/><path class="cls-1" d="M365,490.59a.71.71,0,0,1-.36-1.33l6.27-3.71a.71.71,0,0,1,.73,1.23l-6.27,3.71A.69.69,0,0,1,365,490.59Z"/><rect class="cls-3" x="125.94" y="201.77" width="82.53" height="43.66" rx="1.95" ry="1.95"/><polygon class="cls-3" points="171.74 204.96 197.83 186.32 191.44 204.96 171.74 204.96"/><rect class="cls-5" x="140.92" y="210.29" width="9.05" height="26.62"/><rect class="cls-4" x="155.43" y="215.08" width="9.05" height="21.83"/><rect class="cls-6" x="184.45" y="215.08" width="9.05" height="21.83"/><rect class="cls-2" x="169.94" y="223.6" width="9.05" height="13.31"/></svg>