<svg id="Layer_1" data-name="Layer 1" xmlns="http://www.w3.org/2000/svg" viewBox="0 0 523 551"><defs><style>.cls-1{fill:#fd8753;}.cls-2{fill:#07cbf5;}.cls-3{fill:#352f75;}.cls-4{fill:#9364ed;}.cls-5{fill:#ffb700;}.cls-6{fill:#5e1dbb;}.cls-7{fill:#fff;}.cls-8{fill:#e2209e;}</style></defs><title>Artboard 4 copy 2</title><polygon class="cls-1" points="186.08 454.85 183.86 490.1 152.85 493.55 143.69 475.13 145.7 448.5 186.08 454.85"/><polygon class="cls-1" points="126.02 441.3 99.66 464.81 75.18 445.47 81.61 425.93 101.75 408.39 126.02 441.3"/><path class="cls-1" d="M100.13,200.91s34.76-16.33,52.65-12,25.52-32.76,25.52-32.76-51.14-35.4-92.55,26.33C55.8,227.1,97.84,198,97.84,198Z"/><path class="cls-2" d="M471.86,270.69H331.63a6.39,6.39,0,0,1-6.38-6.38V195.79a6.39,6.39,0,0,1,6.38-6.38H471.86a6.39,6.39,0,0,1,6.38,6.38v68.52A6.39,6.39,0,0,1,471.86,270.69ZM331.63,190.84a5,5,0,0,0-5,5v68.52a5,5,0,0,0,5,5H471.86a5,5,0,0,0,5-5V195.79a5,5,0,0,0-5-5Z"/><path class="cls-2" d="M477.52,204.4H326a.71.71,0,0,1,0-1.42H477.52a.71.71,0,1,1,0,1.42Z"/><path class="cls-2" d="M462.16,200a.71.71,0,0,1-.36-1.32l8.06-4.77a.71.71,0,1,1,.73,1.22l-8.06,4.77A.69.69,0,0,1,462.16,200Z"/><path class="cls-2" d="M470.22,200a.69.69,0,0,1-.36-.1l-8.06-4.77a.71.71,0,1,1,.73-1.22l8.06,4.77a.71.71,0,0,1-.36,1.32Z"/><rect class="cls-3" x="300.3" y="18" width="210.52" height="121.15" rx="2.3" ry="2.3" transform="translate(811.12 157.15) rotate(180)"/><path class="cls-4" d="M330.28,54.8H480.84a4.81,4.81,0,1,0,0-9.63H330.28a4.81,4.81,0,0,0,0,9.63Z"/><path class="cls-4" d="M330.28,83.62H480.84a4.81,4.81,0,1,0,0-9.63H330.28a4.81,4.81,0,0,0,0,9.63Z"/><path class="cls-4" d="M330.28,112H480.84a4.81,4.81,0,0,0,0-9.63H330.28a4.81,4.81,0,0,0,0,9.63Z"/><path class="cls-5" d="M150.3,257.63,82.23,412.94l40.63,41.91s20.49-16.9,41-73.67S177,269.31,177,269.31Z"/><path class="cls-6" d="M206,108.64s-28.48-15.2-18.95-25.24,22.32,13.15,22.32,13.15Z"/><path class="cls-6" d="M228.2,88.39s-17.36-8.23-26.33,4.73c-8.71,12.58,2.18,24.83,2.18,24.83l20.56-17.29Z"/><path class="cls-1" d="M210.42,125.37l-.12,14.58s2.59,4.21,11.11,5c6.35.57,8.59-.85,8.59-.85l-.82-7.39-.81-7.21L213,126Z"/><path d="M213,126a4.79,4.79,0,0,0,.41,1.41c3.2,7.31,12.1,9,15.77,9.31l-.81-7.21Z"/><path class="cls-3" d="M12.18,27.65v81.91a4.54,4.54,0,0,0,4.55,4.52H161a4.53,4.53,0,0,0,4.52-4.52V27.65A4.51,4.51,0,0,0,161,23.13H16.73A4.52,4.52,0,0,0,12.18,27.65Z"/><path class="cls-7" d="M12.18,27.65V38.36H165.55V27.65A4.51,4.51,0,0,0,161,23.13H16.73A4.52,4.52,0,0,0,12.18,27.65Z"/><circle class="cls-5" cx="19.27" cy="31.08" r="3.31"/><circle class="cls-4" cx="29.87" cy="31.08" r="3.31"/><circle class="cls-6" cx="40.47" cy="31.08" r="3.31"/><path class="cls-1" d="M229.93,95.11s9.14,18.26,6.74,28.91-12,9.5-17.88,7.76a19,19,0,0,1-8.67-5.1A8.08,8.08,0,0,1,201,124c-3.83-4.79-1.93-10.61,1.05-12.08s6.73.55,6.73.55l-3.13-5.28S216.23,79,229.93,95.11Z"/><path d="M233.31,119.45a.72.72,0,0,1-.71-.76c.41-5.8-2.07-8.64-2.1-8.67a.71.71,0,0,1,1.05-1c.12.13,2.92,3.27,2.47,9.73A.71.71,0,0,1,233.31,119.45Z"/><path d="M209.06,120.18a.69.69,0,0,1-.28-.06l-7.64-3.2a.71.71,0,0,1-.38-.93.7.7,0,0,1,.93-.38l7.64,3.2a.71.71,0,0,1-.28,1.37Z"/><path d="M202.39,122.13a.7.7,0,0,1-.49-.2.71.71,0,0,1,0-1l3.22-3.39a.71.71,0,0,1,1,1l-3.22,3.39A.72.72,0,0,1,202.39,122.13Z"/><path d="M229,125.2a2.07,2.07,0,0,1-1.46-.63c-1.22-1.25-1.19-4.09-1.18-4.41a.71.71,0,0,1,1.29-.4A6.58,6.58,0,0,0,231.5,122a.71.71,0,0,1,.58.88A3.14,3.14,0,0,1,229,125.2ZM227.9,122a3.22,3.22,0,0,0,.62,1.55.62.62,0,0,0,.44.19,1.77,1.77,0,0,0,1.37-.55A8.42,8.42,0,0,1,227.9,122Z"/><path d="M226,112.16a.71.71,0,0,1-.68-.49l-1.06-3.26a.71.71,0,0,1,0-.54l.91-1.78a.71.71,0,1,1,1.27.65l-.78,1.52,1,3a.71.71,0,0,1-.46.9A.69.69,0,0,1,226,112.16Z"/><path d="M235.28,111.21a.71.71,0,0,1-.68-.49l-1.06-3.26a.71.71,0,0,1,0-.54l.91-1.78a.71.71,0,1,1,1.27.65L235,107.3l1,3a.71.71,0,0,1-.46.9A.68.68,0,0,1,235.28,111.21Z"/><path d="M232.91,102.72l-2.19-.25a.71.71,0,0,1-.62-.79.72.72,0,0,1,.79-.62l2.11.25a.71.71,0,0,1-.08,1.42Z"/><path class="cls-1" d="M320.12,120.6s-18.51,25.46-36.28,30.26-6.72,41-6.72,41,61.85,6.6,68.64-67.43c4.91-53.54-20.3-3.81-20.3-3.81Z"/><path d="M222.35,104.55a.71.71,0,0,1-.29-1.36l4.2-1.91a.71.71,0,0,1,.59,1.3l-4.2,1.91A.69.69,0,0,1,222.35,104.55Z"/><path class="cls-5" d="M160.72,210.7s-14.59,47.12-13.55,51.51S158.28,290.94,159,293s-18.06,166.95-18.06,166.95l61,15.21s40.93-176,36-227S160.72,210.7,160.72,210.7Z"/><rect class="cls-7" x="336.55" y="57.33" width="4.81" height="72.65" transform="translate(320.01 -257.49) rotate(71.47)"/><path class="cls-6" d="M210.57,115.71s7.38-2.35,13.1-10.85,5.5-10.6,5.5-10.6l3.91,8.18s2.44-6.69.09-10.73-5-3.31-5-3.31l-17.35,3.72-6.36,13.72Z"/><path class="cls-4" d="M295.81,142.94s-32.32,3.57-41.84,1.19-33.72-5.27-51.56-6.29-44.88.17-57.13,2.21a174.12,174.12,0,0,0-17.52,3.57s1,19.39,3.74,32.15l3.23,15.14,26.71-2L152,229.39s13.39,8.81,43.5,16.46,46.34,1.7,46.34,1.7l9.63-47.46s22.62-.34,34-2.89,13.1-2.89,13.1-2.89Z"/><path class="cls-1" d="M321.86,124.41s-6.9-14.52-6.49-17.85,7.63-5.63,7.63-5.63,1.48-13.39,4.27-14.41,4.27,3.09,4.27,3.09,1.64-8.37,5.09-7.39,4.1,6,4.1,6,.66-6.61,4.76-5,7.68,17.76,5.71,31.6S337,134.18,337,134.18Z"/><path d="M322,111a.73.73,0,0,1-.71-.79l1-9.33a.69.69,0,0,1,.78-.63.71.71,0,0,1,.63.78l-1,9.33A.71.71,0,0,1,322,111Z"/><path class="cls-1" d="M102.82,195.89s-.93,12.59-2.86,17-5.45,9.68-8.15,8.91,1.59-12.59,1.59-12.59a133.92,133.92,0,0,0-13.66,10c-5.84,5.06-7.8,9.18-10.77,9.09s-2.45-5.72-2.45-5.72-2.37,3.16-4.77,2-.6-7.2-.6-7.2-4.17,1.35-4.52-2.91,10.08-17.32,19.44-23.7a29.34,29.34,0,0,1,18.33-5.33Z"/><path d="M87.78,209.71a.7.7,0,0,1-.33-.08l-16-8.38a.71.71,0,1,1,.66-1.26l16,8.38a.71.71,0,0,1-.33,1.34Z"/><path d="M61.14,218.19a.72.72,0,0,1-.38-.11.71.71,0,0,1-.23-1,136.43,136.43,0,0,1,12.07-16.24.71.71,0,1,1,1,1,134.63,134.63,0,0,0-11.91,16A.71.71,0,0,1,61.14,218.19Z"/><path d="M66.51,223.34a.72.72,0,0,1-.44-.15.71.71,0,0,1-.12-1l13.32-17.08a.71.71,0,1,1,1.12.87L67.08,223.07A.71.71,0,0,1,66.51,223.34Z"/><path d="M88.13,204.08a.71.71,0,0,1-.7-.59c-1.33-7.65,6.58-13.67,6.91-13.93a.71.71,0,0,1,.85,1.14c-.07.06-7.54,5.76-6.36,12.54a.71.71,0,0,1-.58.82Z"/><path class="cls-8" d="M171,482.77s11.16-9.19,16.08-6.24,18.38,30.2,18.38,30.2,18.48,4.77,24.06,10.35,1.31,15.1,0,15.76S184.81,532,182.84,531s-53.18-33.81-54.16-35.12,13.13-33.81,15.76-32.83S171,482.77,171,482.77Z"/><path class="cls-8" d="M111.93,457.44s-11.82,34.14-9.85,36.11,7.22,16.74,7.22,23.63-8.53,13.13-10.18,13.13-31.59-34.47-32.7-36.44-12.6-67.29-11.29-67.62,33.39-7.76,35-6.07,4.73,35.28,4.73,35.28S105.7,448.58,111.93,457.44Z"/><path class="cls-5" d="M102.09,494.26a.71.71,0,0,1-.5-.21l-6.89-6.89a.71.71,0,1,1,1-1l6.89,6.89a.71.71,0,0,1-.5,1.22Z"/><path class="cls-5" d="M205.49,507.44l-.17,0-7.88-2a.71.71,0,0,1-.52-.86.69.69,0,0,1,.86-.52l7.88,2a.71.71,0,0,1-.17,1.4Z"/><path class="cls-6" d="M145,424.63a.73.73,0,0,1-.71-.8c5.51-47.23,15.9-137.26,15.73-139.91-.23-1.57-8.07-13-13-19.77a.71.71,0,1,1,1.16-.83c2.14,3,12.87,18,13.22,20.42S147.34,409.89,145.7,424A.71.71,0,0,1,145,424.63Z"/><path class="cls-6" d="M218.37,285.23a.71.71,0,0,1-.17-1.41C230,281,229.49,268.53,229.46,268a.71.71,0,0,1,.67-.75.7.7,0,0,1,.75.68c0,.14.58,14.14-12.35,17.29Z"/><path class="cls-7" d="M372.64,79.82l6.88.44-5.35,4.12S370.15,83.44,372.64,79.82Z"/><path class="cls-4" d="M145.62,51.5H32.1a.71.71,0,1,1,0-1.42H145.62a.71.71,0,1,1,0,1.42Z"/><path class="cls-4" d="M145.62,63.92H32.1a.71.71,0,1,1,0-1.42H145.62a.71.71,0,1,1,0,1.42Z"/><path class="cls-6" d="M134.1,442.27a.72.72,0,0,1-.52-.22l-44-46.66a.71.71,0,0,1,1-1l44,46.66a.71.71,0,0,1-.52,1.2Z"/><path class="cls-6" d="M205.59,459.61l-.16,0-61.76-14.18A.71.71,0,0,1,144,444l61.76,14.18a.71.71,0,0,1-.16,1.41Z"/><path class="cls-7" d="M251.42,200.81a.73.73,0,0,1-.3-.07.71.71,0,0,1-.34-.95l4.43-9.39a.71.71,0,1,1,1.29.61l-4.43,9.39A.71.71,0,0,1,251.42,200.81Z"/><path class="cls-7" d="M161.43,189.58a.71.71,0,0,1-.71-.71v-9a.71.71,0,0,1,1.42,0v9A.71.71,0,0,1,161.43,189.58Z"/></svg>