<svg id="Layer_1" data-name="Layer 1" xmlns="http://www.w3.org/2000/svg" viewBox="0 0 523 551"><defs><style>.cls-1{fill:#2e2865;}.cls-2{fill:#352f75;}.cls-3{fill:#3e3789;}.cls-4{fill:#9364ed;}.cls-5{fill:#ffb700;}.cls-6{fill:#e2209e;}.cls-7{fill:#5e1dbb;}.cls-8{fill:#6c29d6;}.cls-9{fill:#fd8753;}.cls-10{fill:#7e59d8;}.cls-11{fill:#fff;}.cls-12{fill:#07cbf5;}</style></defs><title>Artboard 4 copy 5</title><path class="cls-1" d="M48.29,66.77v119.8a6.81,6.81,0,0,0,6.8,6.81H268.48a6.55,6.55,0,0,0,2.41-.45,5.27,5.27,0,0,0,1-.47,6.79,6.79,0,0,0,3.39-5.88V66.77A6.81,6.81,0,0,0,268.48,60H55.1A6.81,6.81,0,0,0,48.29,66.77Z"/><path class="cls-2" d="M48.29,182.74v3.83a6.81,6.81,0,0,0,6.8,6.81H268a9.41,9.41,0,0,0,2.9-.45,7.77,7.77,0,0,0,1-.38l-1.7-9L224.8,119,214.12,136.5,182,90.46l-32.12,43.3-6.06-10.21L116.5,153.08l-5.35-5.43L83.4,171.11l-5.84-11.65L57.43,181.13l-2.24-7.25Z"/><path class="cls-3" d="M63.29,193.37H268.48a6.65,6.65,0,0,0,3.43-.94,6.76,6.76,0,0,0,3.37-5.87V178.4l-37.52-68.26-9.33,19.59-28-51.51-28.06,48.44-5.29-11.43L143.17,148.3l-4.68-6.07-24.24,26.24-5.09-13-17.6,24.24-2-8.11Z"/><circle class="cls-4" cx="237.77" cy="111.42" r="5.71"/><circle class="cls-4" cx="137.45" cy="142.24" r="5.72"/><circle class="cls-4" cx="167.08" cy="112.62" r="5.71"/><circle class="cls-4" cx="200.43" cy="78.23" r="5.72"/><circle class="cls-4" cx="108.54" cy="155.43" r="5.72"/><path class="cls-5" d="M325,79.18A44.16,44.16,0,0,0,327.58,20a41.12,41.12,0,0,0-2.95-3.25A43.93,43.93,0,0,0,294.91,4a40,40,0,0,0-4.07.08,4.8,4.8,0,0,0-.57,0c-.52,0-1.07.09-1.61.15-.91.1-1.81.22-2.68.39s-1.73.33-2.58.51l-.31.08q-1,.25-2.07.57c-.51.15-.91.28-1.31.42a1.24,1.24,0,0,0-.49.17c-1,.31-1.89.69-2.84,1.09-.59.25-1.16.49-1.75.77a9.7,9.7,0,0,0-1.09.53c-.35.18-.72.35-1.06.55-.69.37-1.38.77-2,1.19s-1.58,1-2.37,1.57a43.47,43.47,0,0,0-5.91,5,44.18,44.18,0,0,0-8.44,50,43.58,43.58,0,0,0,8.85,12.47A44.18,44.18,0,0,0,325,79.18Z"/><path class="cls-6" d="M253.72,67.12l39.88-19L285.47,14l-9.09-6.51a42.39,42.39,0,0,0-8.3,4.61,43.1,43.1,0,0,0-5.91,5A44.17,44.17,0,0,0,253.72,67.12Z"/><path class="cls-2" d="M293.61,48.13l34-28.18a41.12,41.12,0,0,0-2.95-3.25A43.93,43.93,0,0,0,294.91,4a40,40,0,0,0-4.07.08Z"/><path class="cls-7" d="M293.61,48.13,294.91,4a40,40,0,0,0-4.07.08,4.43,4.43,0,0,0-.57,0c-.52,0-1.07.09-1.61.15-.91.1-1.81.22-2.68.39s-1.73.33-2.58.51l-.31.08q-1,.25-2.07.57c-.51.15-.91.28-1.31.42a1.24,1.24,0,0,0-.49.17,39,39,0,0,0-4.58,1.86,9.7,9.7,0,0,0-1.09.53c-.35.18-.72.35-1.06.55-.69.37-1.38.77-2,1.19s-1.58,1-2.37,1.57Z"/><rect class="cls-8" x="331.68" y="376.4" width="19.94" height="136.02" transform="translate(683.3 888.83) rotate(180)"/><path class="cls-8" d="M299.63,520.57h83.68a6.27,6.27,0,1,0,0-12.54H299.63a6.27,6.27,0,0,0,0,12.54Z"/><circle class="cls-8" cx="385.59" cy="530.18" r="13.48"/><circle class="cls-8" cx="341.65" cy="530.18" r="13.48"/><circle class="cls-8" cx="297.89" cy="530.18" r="13.48"/><path class="cls-2" d="M388.75,239.81s53.31,19,43.3,88.71c-9.19,64-74.37,84.43-129.51,69.37s-45.95-58.51-45.95-58.51Z"/><ellipse class="cls-1" cx="344.4" cy="352.58" rx="41.12" ry="12.84" transform="translate(-41.09 45.46) rotate(-7.13)"/><path class="cls-3" d="M407.59,363.75a.8.8,0,0,1-.54-1.38c13.63-12.61,16.27-37.4,16.3-37.65a.77.77,0,0,1,.87-.71.8.8,0,0,1,.71.87c-.11,1-2.72,25.63-16.8,38.66A.79.79,0,0,1,407.59,363.75Z"/><path class="cls-9" d="M263,168.32s-2.36-10.45-7.94-15.21-12.19-7.83-11-3.59,5,11.16,5,11.16L238.9,158a87.62,87.62,0,0,0-11.4-4.34c-4.8-1.28-6.31,2.25-6.31,2.25s-4.8-1.28-6.88.13-.61,4.42-.61,4.42-6.88.13-4.29,5.4S225.63,180,232.23,183s21.48,5.07,21.48,5.07S267.07,191,263,168.32Z"/><path d="M225.95,170.84a.8.8,0,0,1-.38-1.5l17.57-9.42a.8.8,0,1,1,.75,1.4l-17.57,9.42A.79.79,0,0,1,225.95,170.84Z"/><path d="M257.73,177.64l-.2,0c-5.28-1.37-8.6-3.71-9.87-7-1.72-4.39,1-8.7,1.11-8.88a.8.8,0,0,1,1.34.86s-2.39,3.83-1,7.46c1.08,2.74,4,4.75,8.78,6a.8.8,0,0,1-.2,1.57Z"/><path class="cls-9" d="M263.42,180.2l-25.51-.48s.46,75.15,29.43,88.75c22.9,10.75,37.67-22.38,37.67-22.38Z"/><path class="cls-7" d="M148.52,390.83a.77.77,0,0,1-.36-.09.8.8,0,0,1-.35-1.07c3-6,10.42-22.7,8.41-27.68a1.78,1.78,0,0,0-1.08-1.11,1.74,1.74,0,0,0-1.59.21c-4.15,2.52-7.29,17.82-8.28,24.3,0,.28-.07.5-.1.64a.77.77,0,0,1-.91.66.79.79,0,0,1-.67-.9c0-.07,0-.24.08-.52.8-5.53,1.91-18.83-1.61-21.67a2.71,2.71,0,0,0-2.85-.2,4.37,4.37,0,0,0-2.93,3c-1.43,5.45,6.31,15,6.38,15a.8.8,0,1,1-1.23,1c-.34-.41-8.33-10.23-6.69-16.46a5.92,5.92,0,0,1,3.9-4.08,4.22,4.22,0,0,1,4.43.45c2.26,1.82,3,6.41,3,11.08,1.54-5.88,3.76-12,6.61-13.72a3.34,3.34,0,0,1,5,1.67c2.7,6.66-8,28.09-8.46,29A.8.8,0,0,1,148.52,390.83Z"/><path class="cls-6" d="M171.7,466.68a1.9,1.9,0,0,1-2.61.29L83.34,395.29a1.85,1.85,0,0,1-.08-2.63l7.32-8.53a2,2,0,0,1,2.56-.44,1.77,1.77,0,0,0,1.73.17,2,2,0,0,0,.83-.64c2.07-2.56,7-7.76,13.7-9.53,9.1-2.36,33.18,9.06,44.92,13,7.64,2.58,16.89-1.52,22.42-4.69a7.72,7.72,0,0,1,9,.61c9.33,8.53,31.36,28.64,32.43,30.29,1.37,2.07-14.12,21.4-21.56,27.62S180,453.44,180,453.44l2.47,1.63Z"/><path class="cls-6" d="M171.7,466.68a1.9,1.9,0,0,1-2.61.29L83.34,395.29a1.85,1.85,0,0,1-.08-2.63l7.32-8.53a2,2,0,0,1,2.56-.44,1.77,1.77,0,0,0,1.73.17c23.78,20.5,85.09,69.59,85.09,69.59l2.47,1.63Z"/><path class="cls-7" d="M180,454.24a.79.79,0,0,1-.5-.18L94.36,384.47a.8.8,0,1,1,1-1.23l85.09,69.59a.8.8,0,0,1-.5,1.41Z"/><path class="cls-7" d="M237.16,499.92a.8.8,0,0,1-.78-.62c-1.5-6.56-6.41-24.15-11.13-26.7a1.75,1.75,0,0,0-2.63,1c-1.6,4.58,5.73,18.39,9.09,24l.33.55a.8.8,0,0,1-1.37.82l-.27-.45c-2.89-4.76-10.48-15.69-15-15.69a2.71,2.71,0,0,0-2.36,1.66,4.36,4.36,0,0,0-.35,4.18c2.36,5.11,14.38,7.52,14.5,7.54a.8.8,0,0,1-.3,1.56c-.53-.1-12.94-2.59-15.64-8.44a5.91,5.91,0,0,1,.41-5.63,4.21,4.21,0,0,1,3.7-2.47c2.81,0,6.37,3.05,9.4,6.61-2.56-5.51-4.73-11.64-3.64-14.8A3.34,3.34,0,0,1,226,471.2c6.32,3.42,11.7,26.76,11.93,27.75a.8.8,0,0,1-.6,1Z"/><path class="cls-6" d="M298.62,545.11A1.9,1.9,0,0,1,296.8,547L185,546.31a1.85,1.85,0,0,1-1.74-2l.22-11.24a2,2,0,0,1,1.7-2,1.77,1.77,0,0,0,1.44-1,2,2,0,0,0,.24-1c0-3.29.43-10.42,4.5-16.07,5.52-7.61,31.36-14.14,42.92-18.58,7.53-2.88,12.05-11.92,14.3-17.89A7.72,7.72,0,0,1,256,471.3c12.63.63,42.41,2.12,44.29,2.71,2.37.72,2.73,25.49.95,35s-4.63,20.61-4.63,20.61l2.94-.32Z"/><path class="cls-6" d="M298.62,545.11A1.9,1.9,0,0,1,296.8,547L185,546.31a1.85,1.85,0,0,1-1.74-2l.22-11.24a2,2,0,0,1,1.7-2,1.77,1.77,0,0,0,1.44-1c31.39.68,109.92-.5,109.92-.5l2.94-.32Z"/><path class="cls-7" d="M186.64,530.94a.8.8,0,0,1,0-1.59l109.92-.5a.8.8,0,0,1,0,1.59l-109.92.5Z"/><polygon class="cls-10" points="240.69 397.64 240.69 484.91 311.22 484.91 324.38 364.47 268.18 358.19 240.69 397.64"/><path class="cls-10" d="M155.8,380.9s57.39-68.15,92.06-78.91,142.27-7.17,142.27-7.17,6.47,50.21-22.22,63.36-79.79,10.76-89.16,15.54-66.76,61-66.76,61Z"/><path class="cls-11" d="M242.81,405.91a.8.8,0,0,1-.58-1.34c1.11-1.21,27.39-29.62,36.36-31.62,8.77-2,43.8-5.05,45.28-5.18a.8.8,0,1,1,.14,1.59c-.36,0-36.4,3.21-45.07,5.15-8.48,1.9-35.26,30.86-35.53,31.15A.79.79,0,0,1,242.81,405.91Z"/><path class="cls-11" d="M278.75,374.52a.79.79,0,0,1-.67-.36c-1.57-2.4-9.18-14.55-4.57-17.58a2,2,0,0,1,2.11-.18c3.26,1.69,3.84,14.71,3.92,17.3a.8.8,0,0,1-.56.79A.79.79,0,0,1,278.75,374.52Zm-4-16.75a.67.67,0,0,0-.35.14c-2.05,1.35.44,7.56,3.4,12.72-.4-5.63-1.4-12-2.9-12.82A.3.3,0,0,0,274.74,357.77Z"/><path class="cls-7" d="M431.53,247.21S418.9,199.49,392,180.83s-73.59-10.64-85.77-.16c-11.56,9.94-20.12,34.22-20.12,34.22l-1.69,51.72,8.67,26.74,97.45,6.31-.18-51.39Z"/><path class="cls-9" d="M428.5,247.29S437,279.65,407.37,284s-59.27-26-59.27-26l-.75-29L406,247.86Z"/><path class="cls-6" d="M379.06,238.08a.8.8,0,0,1-.8-.8V228.1a.8.8,0,0,1,1.59,0v9.18A.8.8,0,0,1,379.06,238.08Z"/><path class="cls-11" d="M332.52,116.92s-7.6,8.6-3.42,18.07,8.66-17.22,8.66-17.22Z"/><path class="cls-9" d="M358.08,155.55l.29,17.05s-3,5-13,5.93c-7.42.73-10.06-.91-10.06-.91l.89-8.65.88-8.44,17.95-4.27Z"/><path d="M355.07,156.27c0,.47,1.26,2.23,1,2.87-3.67,8.58-15.86,12.6-20.15,13.05l1.21-11.65Z"/><path class="cls-9" d="M335.76,117.77a16.09,16.09,0,0,0-4.95,7.39c-2.23,6.58-6.73,21.95-3.78,31.37,3.83,12.24,14.87,10,21.43,7.36a22,22,0,0,0,9.51-6.82,9.28,9.28,0,0,0,10.23-4c4-6,1.17-12.61-2.42-14s-7.72,1.3-7.72,1.3l3.09-6.49S348.72,107.22,335.76,117.77Z"/><path d="M359,148.66a.8.8,0,0,1-.48-1.44l6.23-4.64a.8.8,0,0,1,1,1.28l-6.23,4.64A.8.8,0,0,1,359,148.66Z"/><path d="M366,148.44l-.19,0-5.08-1.22a.8.8,0,0,1,.37-1.55l5.08,1.22a.8.8,0,0,1-.19,1.57Z"/><path d="M330.21,137.73l-.2,0a.8.8,0,0,1-.58-1l1-3.93a.8.8,0,1,1,1.54.39l-1,3.93A.8.8,0,0,1,330.21,137.73Z"/><path d="M342.92,139l-.2,0a.8.8,0,0,1-.58-1l1-3.93a.8.8,0,1,1,1.54.39l-1,3.93A.8.8,0,0,1,342.92,139Z"/><path d="M330.13,129.15a.8.8,0,0,1-.09-1.59l3.23-.35a.78.78,0,0,1,.88.71.8.8,0,0,1-.71.88l-3.23.35Z"/><path d="M346.08,131.81a.75.75,0,0,1-.25,0l-4.55-1.53a.8.8,0,1,1,.5-1.51l4.55,1.53a.8.8,0,0,1-.25,1.55Z"/><path class="cls-11" d="M358.06,140.28s-1.77,7.1-3.13,6.23-2.63-11.1-1.62-15.68,1.75-6.88,1.75-6.88-18.63-1.66-23.54-6.08,5.46-7.28,16.07-5.27,14.79,6,14.79,6,6.65-1,9.13,3.06-3.17,19.46-3.17,19.46S366.68,137.25,358.06,140.28Z"/><path d="M337.72,153.8c-1.95,0-3.42-2.29-3.6-2.57a.79.79,0,0,1,.46-1.18l5.91-1.68a.78.78,0,0,1,.78.21.79.79,0,0,1,.2.79c-.83,2.78-1.95,4.22-3.43,4.42Zm-1.56-2.54c.5.53,1.22,1,1.68.94s1.11-.74,1.6-1.88Z"/><path d="M335.16,144.91a.79.79,0,0,1-.71-.44c-2.54-5.07,1.11-10.41,1.27-10.63a.8.8,0,0,1,1.31.91s-3.26,4.79-1.15,9a.8.8,0,0,1-.71,1.15Z"/><path class="cls-6" d="M340.75,179.4a39.8,39.8,0,0,1-9.21-1.06.8.8,0,1,1,.4-1.54c.18,0,17.69,4.43,26.42-5.92a.8.8,0,0,1,1.22,1C354.45,178,346.78,179.4,340.75,179.4Z"/><rect class="cls-8" x="135.32" y="294.25" width="339.39" height="9.13" rx="0.98" ry="0.98" transform="translate(610.03 597.62) rotate(180)"/><path class="cls-8" d="M449.49,546.31a2.65,2.65,0,0,1-2.65-2.65V303.38a2.65,2.65,0,1,1,5.3,0V543.66A2.65,2.65,0,0,1,449.49,546.31Z"/><path class="cls-8" d="M160.65,546.31a2.65,2.65,0,0,1-2.65-2.65V303.38a2.65,2.65,0,1,1,5.3,0V543.66A2.65,2.65,0,0,1,160.65,546.31Z"/><path class="cls-9" d="M351.22,231s-36.41-22.77-39.3-19.54,12.46,13.75,12.46,13.75-5.34,18.34-3,23,5.49,2.67,5.49,2.67a36.79,36.79,0,0,0,17.86,7.32c10.7,1.27,14.45-14.4,14.45-14.4Z"/><path class="cls-9" d="M327.85,249.79s8,4.25,5,6.95-10.86-5-12-6.95,1.54-7.14,1.54-7.14Z"/><path d="M333.36,255.4a.79.79,0,0,1-.22,0c-.26-.07-6.29-1.83-7.8-5.06a.8.8,0,0,1,1.44-.67c1,2.13,5.24,3.76,6.8,4.2a.8.8,0,0,1-.22,1.56Z"/><path class="cls-11" d="M330.43,286.39H235.66l-27.07-61.23h91a5.74,5.74,0,0,1,5.25,3.42Z"/><path class="cls-12" d="M322.2,286.39H227.42l-24.16-54.64a4.69,4.69,0,0,1,4.29-6.58h87.58Z"/><path class="cls-5" d="M362.21,294.12H228.39a3.87,3.87,0,0,1,0-7.73H362.21a3.87,3.87,0,0,1,0,7.73Z"/><circle class="cls-11" cx="262.53" cy="255.77" r="8.05"/><path d="M331.21,226h-6.84a.8.8,0,0,1,0-1.59h6.84a.8.8,0,0,1,0,1.59Z"/></svg>