<svg id="Layer_1" data-name="Layer 1" xmlns="http://www.w3.org/2000/svg" viewBox="0 0 523 551"><defs><style>.cls-1{fill:#fff;}.cls-2{fill:#5e1dbb;}.cls-3{fill:#07cbf5;}.cls-4{fill:#352f75;}.cls-5{fill:#ffb700;}.cls-6{fill:#9364ed;}.cls-7{fill:#fd8753;}.cls-8{fill:#e2209e;}.cls-9{fill:#7e59d8;}</style></defs><title>Artboard 4 copy 3</title><path class="cls-1" d="M509.09,266h-108a8.29,8.29,0,0,1-8.28-8.28V99.56a8.3,8.3,0,0,1,8.28-8.28h108a8.29,8.29,0,0,1,8.28,8.28V257.76A8.29,8.29,0,0,1,509.09,266Zm-108-173.17a6.69,6.69,0,0,0-6.68,6.68V257.76a6.69,6.69,0,0,0,6.68,6.68h108a6.69,6.69,0,0,0,6.68-6.68V99.56a6.69,6.69,0,0,0-6.68-6.68Z"/><rect class="cls-2" x="379.38" y="104.91" width="122.93" height="173.17" rx="2.33" ry="2.33" transform="translate(881.69 383) rotate(180)"/><path class="cls-1" d="M470.68,188.63a30.78,30.78,0,0,0-.08-13.78l-4.32,0-2.57-6.15,3.07-2.93a30.66,30.66,0,0,0-9.58-9.64l-3.36,3.19-6.11-2.61.19-4.5a30.75,30.75,0,0,0-13.53-.14v4.87l-6.1,2.63-3.52-3.63a30.63,30.63,0,0,0-9.63,9.45l3.43,3.27L416,174.79l-4.9.05a30.81,30.81,0,0,0-.08,13.81l5,.05,2.57,6.15L415,198.26a30.69,30.69,0,0,0,9.55,9.54l3.74-3.86,6.1,2.64v5.24a30.76,30.76,0,0,0,13.55-.14l-.2-4.86,6.11-2.6,3.59,3.41a30.65,30.65,0,0,0,9.49-9.72l-3.21-3.06,2.57-6.15Zm-29.83,8.14a14.84,14.84,0,1,1,14.84-14.84A14.84,14.84,0,0,1,440.85,196.77Z"/><path class="cls-3" d="M476.37,232.77a18.14,18.14,0,0,0,2.24-7.81l-2.43-.74-.43-3.9,2.22-1.14a18.07,18.07,0,0,0-3.82-7l-2.43,1.25-3-2.49.85-2.51a18.12,18.12,0,0,0-7.63-2.32l-.81,2.76-3.89.48-1.39-2.64a18.05,18.05,0,0,0-7,3.74l1.4,2.42-2.47,3.05-2.78-.78a18.17,18.17,0,0,0-2.34,7.8l2.81.86.43,3.91L443.28,229a18.1,18.1,0,0,0,3.82,7l2.76-1.56,3,2.5-.87,3a18.13,18.13,0,0,0,7.68,2.17l.69-2.78,3.89-.46,1.46,2.52a18.07,18.07,0,0,0,7-3.92l-1.31-2.26,2.47-3.05Zm-18.22-.35A8.75,8.75,0,1,1,469,226.49,8.75,8.75,0,0,1,458.14,232.42Z"/><path class="cls-4" d="M217.84,18.23v149c0,4.53,3.14,8.23,7,8.23H448.12c3.86,0,7-3.69,7-8.23v-149c0-4.53-3.14-8.23-7-8.23H224.86C221,10,217.84,13.69,217.84,18.23Z"/><path class="cls-1" d="M217.84,18.23v8.72H455.11V18.23c0-4.53-3.14-8.23-7-8.23H224.86C221,10,217.84,13.69,217.84,18.23Z"/><circle class="cls-5" cx="416.18" cy="18.47" r="4.03"/><circle class="cls-6" cx="429.09" cy="18.47" r="4.03"/><circle class="cls-2" cx="442" cy="18.47" r="4.03"/><rect class="cls-2" x="239.88" y="76.04" width="193.19" height="10.04" transform="translate(672.95 162.13) rotate(180)"/><rect class="cls-2" x="239.88" y="54.83" width="193.19" height="10.04" transform="translate(672.95 119.7) rotate(180)"/><rect class="cls-2" x="239.88" y="137.73" width="193.19" height="10.04" transform="translate(672.95 285.5) rotate(180)"/><rect class="cls-2" x="239.88" y="96.6" width="193.19" height="10.04" transform="translate(672.95 203.25) rotate(180)"/><rect class="cls-2" x="239.88" y="117.17" width="193.19" height="10.04" transform="translate(672.95 244.38) rotate(180)"/><polygon class="cls-7" points="163.49 468.78 163.49 492.25 208.54 490.59 208.54 468.78 163.49 468.78"/><polygon class="cls-7" points="52.72 466.14 52.72 489.61 94.42 487.95 94.42 466.14 52.72 466.14"/><path class="cls-8" d="M104.77,528.4c0,4.14-1.42,8.88-4.32,10.07s-26.42,3.68-47,1.92c-19.7-1.69-23.79-3.11-25.24-4.87-.71-.89.68-5,2.26-9,.1-.2.17-.43.27-.63.81-2,1.66-4,2.26-5.37a23,23,0,0,1,2.23-3.81c2.13-2.88,6.35-8.85,7.43-11.93,1.42-4.11,3.58-13,5-17.16a7.73,7.73,0,0,1,5-5s40.51-2.72,43.41-.33,4.32,21.9,4.32,24.85v2.95c0,2.75,1.93,8.18,3.18,12.69.34,1.13.61,2.19.81,3.15A12.63,12.63,0,0,1,104.77,528.4Z"/><path class="cls-8" d="M284.4,536.85c-2.7,1.09-117.67,4.17-120.34,0-.81-1.26-1.39-5.53-1.76-10.9-.95-12.66-.95-31.48-.95-31.48a73.4,73.4,0,0,1-.68-9.41c.13-2.95,55.44-1.82,55.44-1.82l35.57,23a188.82,188.82,0,0,0,21,4.76c5.71.89,9.39,7.75,11.22,14.21C285.55,531,285.69,536.32,284.4,536.85Z"/><path class="cls-2" d="M137.28,207.8s50.83,50.76,71.1,130.27,18.92,138,18.92,138H150.67s-2-48.59-10.44-88.35a425.19,425.19,0,0,0-20.71-69l-8.25,157.37H34.78s14-228.41,27.65-262.52C73.51,185.86,137.28,207.8,137.28,207.8Z"/><path class="cls-5" d="M84.63,500.31a116.46,116.46,0,0,0-27.64,0,.79.79,0,0,1-.9-.69.8.8,0,0,1,.69-.9,117,117,0,0,1,28,0,.8.8,0,0,1-.11,1.6Z"/><path class="cls-5" d="M84.63,510.21a116.46,116.46,0,0,0-27.64,0,.79.79,0,0,1-.9-.69.8.8,0,0,1,.69-.9,116.94,116.94,0,0,1,28,0,.8.8,0,0,1-.11,1.6Z"/><path class="cls-1" d="M119.52,319.55a.8.8,0,0,1-.8-.81l.67-54.42a.81.81,0,0,1,.51-.74l20-7.7a.8.8,0,0,1,.58,1.5L121,264.88l-.66,53.88A.8.8,0,0,1,119.52,319.55Z"/><path class="cls-5" d="M222.24,496.74a.8.8,0,0,1,0-1.6l12-.18a.88.88,0,0,1,.81.79.8.8,0,0,1-.79.81l-12,.18Z"/><path class="cls-5" d="M230.59,503.21a.8.8,0,0,1,0-1.6l12-.18a.8.8,0,1,1,0,1.6l-12,.18Z"/><path class="cls-7" d="M222.29,137a41.75,41.75,0,0,1,6.79-16.43c4.83-6.9,12.22-15.71,18.88-16.6,11.1-1.49,28,3.43,29,11.16s-3.15,9.47-3.15,9.47.92,4.9-1.07,7l-2,2.14s1.24,6.21-6,7S253.6,140,252.35,139a10.19,10.19,0,0,1-1.91-2s3.9,7.4-4.55,10.66S222.29,137,222.29,137Z"/><path d="M270.63,125.51a33.55,33.55,0,0,1-13.9-2.81c-4.76-2.24-7.15-4.53-6.91-6.6.11-1,.88-2.31,3.86-2.95a17.58,17.58,0,0,1,5-.24c2.37.14,4.23.25,7.12-1.77a.8.8,0,0,1,.92,1.32,10.92,10.92,0,0,1-8.13,2.05,15.83,15.83,0,0,0-4.58.21c-1.55.33-2.53.91-2.6,1.56-.11.94,1.4,2.8,6,5,7.4,3.49,16.21,2.53,16.29,2.51a.8.8,0,0,1,.18,1.59A30.59,30.59,0,0,1,270.63,125.51Z"/><path class="cls-7" d="M240.93,111.81s15.41,4.55,13.91,8-10.68,3.35-10.68,3.35,8.45,13.06-1,19.77Z"/><path d="M243.16,143.75a.8.8,0,0,1-.47-1.45c8.7-6.18,1.11-18.17.79-18.68a.8.8,0,0,1,0-.82.84.84,0,0,1,.71-.41c3.36.05,9-.69,9.93-2.86a.53.53,0,0,0,0-.47c-1-2.14-8.73-5.1-13.36-6.47a.8.8,0,1,1,.45-1.54c1.3.38,12.72,3.84,14.36,7.33a2.13,2.13,0,0,1,.07,1.79c-1.33,3.11-7.26,3.7-10.05,3.81,1.86,3.52,6.31,13.81-1.9,19.64A.8.8,0,0,1,243.16,143.75Z"/><path d="M270.74,134.55c-.47,0-11.52-.09-17.92-2.5-6.91-2.6-5.68-9-5.67-9a.8.8,0,0,1,1.57.32c0,.21-.94,5.1,4.66,7.21,6.14,2.31,17.25,2.4,17.37,2.4a.8.8,0,0,1,0,1.6Z"/><rect x="254.94" y="89.02" width="6.36" height="24.74" transform="translate(516.24 202.78) rotate(180)"/><ellipse class="cls-1" cx="255.54" cy="64.77" rx="8.58" ry="24.52"/><path class="cls-1" d="M169.46,476.92a.8.8,0,0,1-.8-.74c-.11-1.44-11.54-144.79-49.08-187.35a.8.8,0,1,1,1.2-1.06c37.89,43,49.36,186.84,49.47,188.29a.8.8,0,0,1-.74.86Z"/><path class="cls-1" d="M65.11,248.06c-.54,0-1.1,0-1.66-.08a.8.8,0,0,1-.72-.88.83.83,0,0,1,.88-.72c10.25,1,17.16-8.93,17.23-9a.8.8,0,0,1,1.33.9C81.87,238.67,75.38,248.06,65.11,248.06Z"/><path class="cls-1" d="M48.27,476.92a.81.81,0,0,1-.8-.86L65.6,247.19a.82.82,0,0,1,.86-.74.8.8,0,0,1,.74.86L49.07,476.19A.8.8,0,0,1,48.27,476.92Z"/><path class="cls-5" d="M223.1,115.16l31,37.77s-22,27.17-46.82,36.11-52.33,0-52.33,0v40.09H57.18s4.35-110.23,7.57-111.32c23.09-7.76,54.79-10.72,69.54-7.29,6,1.4,42.69,20.54,48.19,21.2S223.1,115.16,223.1,115.16Z"/><path class="cls-1" d="M92.66,83.3s6-1.89,8.62-5.57,2.55-12.37,2.55-12.37,11.38,5,14.24,4.21,7.71-14.15,3.53-19.51-11.47,2.07-11.47,2.07-2.1-7.9-10.43-5.5C89.9,49.44,88,59.69,88,59.69S86.61,48.79,80,54s-3.32,17.62-3.32,17.62-5.37,2.75-3.94,7.88S82,89.21,82,89.21Z"/><path class="cls-7" d="M92.68,99.07l-.4,16.59s3,4.83,13,5.8c7.47.72,10.14-.86,10.14-.86l-.84-8.42-.83-8.21-18-4.19Z"/><path d="M95.7,99.78a5.29,5.29,0,0,0,.46,1.61c3.64,8.36,14.1,10.34,18.41,10.79l-.83-8.21Z"/><path class="cls-7" d="M118.49,66.22s8.51,21,4.68,32.45-14.7,9.3-21.15,6.84a21.47,21.47,0,0,1-9.34-6.44,9.39,9.39,0,0,1-10.06-3.83c-3.87-5.63-1.1-11.86,2.45-13.19s7.6,1.24,7.6,1.24l-3-6.11S104.57,47.15,118.49,66.22Z"/><path d="M91.83,92.39a.8.8,0,0,1-.47-.15l-7.61-5.52a.8.8,0,0,1,.94-1.3l7.61,5.52a.8.8,0,0,1-.47,1.45Z"/><path d="M102.64,76.61a.8.8,0,0,1-.62-1.32A6.19,6.19,0,0,1,108.76,73a.8.8,0,0,1-.54,1.51,4.64,4.64,0,0,0-5,1.79A.8.8,0,0,1,102.64,76.61Z"/><path d="M120.58,74.37a.8.8,0,0,1-.51-.19,3.4,3.4,0,0,0-3.66-.42.8.8,0,0,1-.76-1.41,5,5,0,0,1,5.45.6.8.8,0,0,1-.51,1.42Z"/><path d="M120.17,82.35a.8.8,0,0,1-.78-.6l-1-3.83a.8.8,0,0,1,1.55-.4l1,3.83a.8.8,0,0,1-.58,1Z"/><path d="M107.8,83.14a.8.8,0,0,1-.78-.6l-1-3.82a.8.8,0,1,1,1.55-.4l1,3.82a.8.8,0,0,1-.58,1Z"/><path d="M111.47,97.9a3.05,3.05,0,0,1-.64-.07c-1.6-.35-2.87-2-3.81-4.84a.8.8,0,0,1,1.16-.94L114,95.38a.81.81,0,0,1,.39.57.8.8,0,0,1-.2.67A4.15,4.15,0,0,1,111.47,97.9Zm-2-3.29a3,3,0,0,0,1.73,1.65,1.64,1.64,0,0,0,1-.11Z"/><path class="cls-1" d="M92.66,83.3s6.45-1.55,8.52-7A23.1,23.1,0,0,0,102.6,66a11.11,11.11,0,0,0,9.2,2.43c5.68-1,6.87-6.94,6.87-6.94L113,55.69S91.82,61.59,91.25,61s-7.52,13.82-7.52,13.82Z"/><path d="M84.81,92.68a.8.8,0,0,1-.42-1.48l4-2.48a.8.8,0,0,1,.84,1.36l-4,2.48A.8.8,0,0,1,84.81,92.68Z"/><path class="cls-8" d="M103.26,87.93a4.6,4.6,0,0,1-4.58-4.3l-.24-3.82a2.21,2.21,0,0,1,2.06-2.34l8.44-.54A2.2,2.2,0,0,1,111.28,79l.24,3.82a4.59,4.59,0,0,1-4.29,4.87l-3.68.23Zm5.82-9.39-8.48.54a.6.6,0,0,0-.56.64l.24,3.82a3,3,0,0,0,3.17,2.79l3.68-.23a3,3,0,0,0,2.79-3.17l-.24-3.82A.6.6,0,0,0,109.08,78.54Z"/><path class="cls-8" d="M99.07,82.78l-.18,0a33.88,33.88,0,0,0-12.49-.21A.8.8,0,1,1,86.07,81a34.94,34.94,0,0,1,13.18.22.8.8,0,0,1-.18,1.58Z"/><path d="M113.94,90.32a.79.79,0,0,1-.25,0,.8.8,0,0,1-.51-1c1.92-5.75-.42-8-.52-8.14a.81.81,0,0,1,0-1.13.8.8,0,0,1,1.12-.06c.13.12,3.24,3,1,9.83A.8.8,0,0,1,113.94,90.32Z"/><path class="cls-8" d="M119.35,87.1a4.13,4.13,0,0,1-4.12-3.87L115,78.79a2,2,0,0,1,1.9-2.16l6.24-.4a2.05,2.05,0,0,1,2.16,1.9l.28,4.44A4.13,4.13,0,0,1,121.67,87l-2,.13Zm3.87-9.27-6.26.4a.43.43,0,0,0-.4.46l.28,4.44a2.53,2.53,0,0,0,2.68,2.36l2-.13a2.53,2.53,0,0,0,2.36-2.68l-.28-4.44A.43.43,0,0,0,123.22,77.84Z"/><path class="cls-2" d="M112.7,155.5v28.65a2.79,2.79,0,0,0,2.77,2.77h28.65a2.77,2.77,0,0,0,2.77-2.77V155.5a2.77,2.77,0,0,0-2.77-2.77H115.47A2.79,2.79,0,0,0,112.7,155.5Z"/><path class="cls-1" d="M115.2,155.5v28.65a2.79,2.79,0,0,0,2.77,2.77h28.65a2.77,2.77,0,0,0,2.77-2.77V155.5a2.77,2.77,0,0,0-2.77-2.77H118A2.79,2.79,0,0,0,115.2,155.5Z"/><circle class="cls-9" cx="125.05" cy="161.07" r="4.74"/><path class="cls-8" d="M115.2,175.21v8.94a2.79,2.79,0,0,0,2.77,2.77h28.65a2.77,2.77,0,0,0,2.77-2.77v-8.8c-4.44-2.27-12.17-5.67-17.08-4.83-7.28,1.25-7.28,6.65-9.51,7.07C121.53,177.83,118,176.43,115.2,175.21Z"/><path class="cls-8" d="M110.17,83a.8.8,0,0,1-.42-1.49c.17-.11,4.23-2.55,6.68-.61a.8.8,0,0,1-1,1.26c-1.55-1.23-4.81.7-4.84.73A.8.8,0,0,1,110.17,83Z"/><path class="cls-7" d="M93.62,181.93s11.28-5.82,18.68-6.65,10.91,6.65,10.91,6.65a84.39,84.39,0,0,0,14,2.91c7.4.83,13.24,1.66,13.24,4.16s-5.84,4.16-5.84,4.16,9.35,1.25,5.84,5-9.74,5-9.74,5,7.79,2.08-2.73,5.82-33.61,4.57-45.24-4.16S93.62,181.93,93.62,181.93Z"/><path class="cls-5" d="M64.75,117.81S-1.35,148.29,6.23,185.4s95,31.8,95,31.8V169.82l-31.5-2.19Z"/><path class="cls-2" d="M101.24,170.63l-.18,0c-.19,0-19.14-4.26-37.52-3.79a.75.75,0,0,1-.82-.78.8.8,0,0,1,.78-.82c18.61-.49,37.73,3.79,37.92,3.83a.8.8,0,0,1-.18,1.58Z"/><path class="cls-2" d="M56.09,167.74c-3.4,0-6.71-.43-8.39-1.83a3.23,3.23,0,0,1-1.22-2.53,2.57,2.57,0,0,1,1.18-2.27c3.89-2.53,17.52,3.45,19.06,4.14a.8.8,0,0,1-.19,1.52A66.92,66.92,0,0,1,56.09,167.74Zm-5.67-5.68a3.56,3.56,0,0,0-1.88.39,1,1,0,0,0-.45.92,1.62,1.62,0,0,0,.64,1.3c2.36,2,9.9,1.53,14.73.92C59.07,163.84,53.54,162.06,50.42,162.06Z"/><path class="cls-2" d="M107.1,122.5a22.11,22.11,0,0,1-16.29-6.45A.8.8,0,0,1,92,114.93c9.09,9.37,22.81,4.92,22.95,4.87a.8.8,0,0,1,.51,1.52A29.11,29.11,0,0,1,107.1,122.5Z"/><path class="cls-2" d="M179.79,145.46a1.54,1.54,0,0,1-1.27-.62c-1.62-2.14,2.07-10.84,3.23-13.45a.78.78,0,0,1,.87-.46.8.8,0,0,1,.66.73c.24,3.09.72,13.22-3.2,13.78Zm2-10c-1.63,4.24-2.54,7.86-2,8.47C181.13,143.68,181.8,139.8,181.82,135.42Z"/><path d="M123.21,182.73l-.18,0-8.91-2a.8.8,0,0,1,.35-1.57l8.91,2a.8.8,0,0,1-.18,1.58Z"/><path d="M138.21,194.44a59.44,59.44,0,0,1-14.27-1.8.8.8,0,0,1,.39-1.56c11.68,2.9,20.06,1.3,20.15,1.29a.8.8,0,0,1,.31,1.57A36.61,36.61,0,0,1,138.21,194.44Z"/><path d="M133.11,204.71c-3.37,0-7.24-.48-10.32-2.21a.8.8,0,0,1,.79-1.4c6.32,3.55,16.89,1.28,17,1.25a.8.8,0,0,1,.35,1.57A39.63,39.63,0,0,1,133.11,204.71Z"/><path class="cls-3" d="M259.32,90.09c-5.26,0-9.38-11.12-9.38-25.32s4.12-25.32,9.38-25.32,9.38,11.12,9.38,25.32S264.58,90.09,259.32,90.09Zm0-49c-3.75,0-7.77,9.53-7.77,23.72s4,23.71,7.77,23.71,7.78-9.53,7.78-23.71S263.07,41.06,259.32,41.06Z"/><path class="cls-2" d="M256.57,82.7a.79.79,0,0,1-.56-.23c-.22-.22-2.21-2.41-3-10.09a.8.8,0,0,1,.71-.88.82.82,0,0,1,.88.71c.77,7.11,2.58,9.12,2.6,9.14a.8.8,0,0,1-.58,1.36Z"/></svg>