<svg id="Layer_1" data-name="Layer 1" xmlns="http://www.w3.org/2000/svg" viewBox="0 0 523 551"><defs><style>.cls-1{fill:#e2209e;}.cls-2{fill:#fd8753;}.cls-3{fill:#352f75;}.cls-4{fill:#fff;}.cls-5{fill:#07cbf5;}.cls-6{fill:#3e3789;}.cls-7{fill:#6c29d6;}.cls-8{fill:#2e2865;}.cls-9{fill:#ffb700;}.cls-10{fill:#5e1dbb;}.cls-11{fill:#7e59d8;}</style></defs><title>Artboard 4 copy 4</title><path class="cls-1" d="M456.47,275.64H312.84a.79.79,0,0,1-.78-.78V94.1a.78.78,0,0,1,1.57,0v180H455.68V134.65a.78.78,0,0,1,1.57,0V274.86A.79.79,0,0,1,456.47,275.64Z"/><polygon class="cls-2" points="215.24 416.38 224.39 447.41 263.16 440.78 254.29 411.85 215.24 416.38"/><polygon class="cls-2" points="154.77 410.76 150.56 446.22 189.32 453.65 192.93 420.46 154.77 410.76"/><path class="cls-2" d="M280.24,95.23s3.94,12.41-2.87,15-6.83-4.52-6.83-4.52l4.21-8.89Z"/><path class="cls-2" d="M248.86,119.89s8.9-22.95,17-26.94,23.53-3.49,25.88.7-4.71,4.29-6.54,3.85-7.32.77-8.63,2.65-1.83,9.74-1.83,9.74,6,1.22,8.63-1,5.23-6.14,7.06-3.25-5.49,18.06-10.72,22.24-18.56,9.41-18.56,9.41Z"/><path d="M274.75,110.67a.8.8,0,0,1-.78-.86,58.88,58.88,0,0,1,1.22-7,7.46,7.46,0,0,1,5.55-5.68.78.78,0,0,1,.92.61.79.79,0,0,1-.61.93,5.89,5.89,0,0,0-4.32,4.49,59.06,59.06,0,0,0-1.19,6.8A.79.79,0,0,1,274.75,110.67Z"/><rect class="cls-3" x="295.93" y="77.18" width="33.83" height="33.83" rx="0.89" ry="0.89"/><rect class="cls-3" x="295.93" y="120.41" width="33.83" height="33.83" rx="0.89" ry="0.89"/><rect class="cls-3" x="295.93" y="163.63" width="33.83" height="33.83" rx="0.89" ry="0.89"/><polygon class="cls-4" points="298.99 113.26 283.18 99.89 287.23 95.1 298.44 104.58 307.56 94.66 312.18 98.91 298.99 113.26"/><polygon class="cls-4" points="312.48 149.97 299.48 138.93 303.54 134.15 311.46 140.88 321.67 127.33 326.68 131.11 312.48 149.97"/><polygon class="cls-4" points="312.48 193.2 299.48 182.15 303.54 177.37 311.46 184.1 321.67 170.55 326.68 174.33 312.48 193.2"/><rect class="cls-5" x="408.88" y="105.67" width="95.18" height="57.96" rx="1.96" ry="1.96"/><path class="cls-6" d="M516,249.17V378.85a14.08,14.08,0,0,1-14.06,14.09H299.29a14.09,14.09,0,0,1-14.09-14.09V249.17a14.09,14.09,0,0,1,14.09-14.09H501.92A14.08,14.08,0,0,1,516,249.17Z"/><rect class="cls-7" x="89.52" y="311.2" width="20.17" height="137.56"/><path class="cls-7" d="M142.1,457H57.47a6.34,6.34,0,0,1,0-12.68H142.1a6.34,6.34,0,0,1,0,12.68Z"/><circle class="cls-7" cx="55.17" cy="466.72" r="13.63"/><circle class="cls-7" cx="99.6" cy="466.72" r="13.63"/><circle class="cls-7" cx="143.86" cy="466.72" r="13.63"/><path class="cls-3" d="M58,159.21S-1.94,192.29,8.17,262.77c9.29,64.74,75.22,85.39,131,70.15s46.47-59.17,46.47-59.17Z"/><ellipse class="cls-8" cx="96.83" cy="296.52" rx="12.98" ry="41.59" transform="translate(-209.41 355.8) rotate(-82.87)"/><path class="cls-6" d="M32.91,298.38a.79.79,0,0,1-.53-.21c-14.24-13.17-16.88-38-17-39.08a.78.78,0,0,1,.7-.86.8.8,0,0,1,.86.7c0,.25,2.69,25.33,16.49,38.09a.78.78,0,0,1-.53,1.36Z"/><path class="cls-9" d="M228,476.79a5.54,5.54,0,0,1-5.68-5.09c-1.34-12-5.81-38.61-3.63-38.85,2.78-.31,31.58,4.19,31.58,4.19s-1.06-16.66,10.81-15c9.1,1.29,20.54,10.69,25.36,15a10,10,0,0,0,5.35,2.49c8.47,1.14,31.91,5.37,33.59,17.5,2.06,14.83-4.1,13.8-6.88,14.11C316.15,471.42,247.45,475.61,228,476.79Z"/><path class="cls-9" d="M140.68,466.78a5.54,5.54,0,0,1-3.08-7c3.72-11.45,10.64-37.56,12.73-36.88,2.66.87,27,16.85,27,16.85s5.91-15.61,16-9.18c7.76,4.94,14.29,18.21,16.92,24.12a10,10,0,0,0,3.84,4.48c7.25,4.53,26.85,18.06,23.38,29.8-4.24,14.36-9.42,10.88-12.09,10C223.16,498.26,158.85,473.72,140.68,466.78Z"/><path class="cls-4" d="M121.8,71.54S98.61,65.3,81.35,86.43s-6.53,47.14,20.8,46.39,33.69-28.68,33.69-28.68Z"/><path class="cls-4" d="M156.63,88.93a22.81,22.81,0,0,0,4.95-18.11c-1.12-7.52-4.41-10-4.41-10s5.28-10.14-9.86-9.81S119.76,50,113,63.07c-4,7.67-2.39,24.34-2.39,24.34Z"/><path class="cls-2" d="M123.18,100.76l.11,18.48s3.36,5.29,14.18,6.11c8.06.61,10.58-3.54,10.58-3.54l-2-16.16-19.54-4.18Z"/><path d="M123.2,99.63a6.08,6.08,0,0,0,.55,1.78c4.19,9.2,18.76,13,23.41,13.35L146,105.64Z"/><path class="cls-2" d="M149.87,63.51s9.83,23.11,6.08,36-15.51,10.74-22.53,8.18a23.33,23.33,0,0,1-10.25-6.92,9.94,9.94,0,0,1-10.95-4c-4.34-6.16-1.57-13.17,2.21-14.74s8.22,1.18,8.22,1.18l-3.44-6.72S134.28,42.65,149.87,63.51Z"/><path class="cls-4" d="M122.65,83.21s9.86,2.19,16.94-8.69,6.54-15.41,6.54-15.41l6.63,11.5s1.68-7.85-1.37-12.94S145,53.56,145,53.56l-21.92,5L117,76Z"/><path d="M147.48,92.79a.77.77,0,0,1-.25,0,.78.78,0,0,1-.5-1c1.4-4.27-.46-8.94-.48-9a.78.78,0,0,1,1.45-.59c.09.21,2.1,5.24.51,10.07A.78.78,0,0,1,147.48,92.79Z"/><path d="M121.51,94a.78.78,0,0,1-.58-.25l-6.14-6.73A.79.79,0,0,1,115.95,86l6.14,6.73a.79.79,0,0,1,0,1.11A.78.78,0,0,1,121.51,94Z"/><path d="M114.93,92.15a.78.78,0,0,1-.1-1.56l4.33-.59a.81.81,0,0,1,.88.67.79.79,0,0,1-.67.88l-4.33.59Z"/><path d="M153.33,74c-.15,0-4.12-.78-4.12-.78a.78.78,0,0,1-.62-.92.75.75,0,0,1,.92-.62l4,.77a.78.78,0,0,1-.15,1.55Z"/><path d="M138.17,74.95a.78.78,0,0,1-.28-1.52L142,71.89a.79.79,0,0,1,.55,1.47l-4.12,1.54A.8.8,0,0,1,138.17,74.95Z"/><path d="M151.12,83.47a.78.78,0,0,1-.75-.57l-1.2-4.18a.78.78,0,0,1,.16-.72l1.31-1.54a.78.78,0,0,1,1.19,1l-1,1.21,1.08,3.78a.78.78,0,0,1-.54,1A.75.75,0,0,1,151.12,83.47Z"/><path d="M139.47,84.37a.78.78,0,0,1-.75-.57l-1.2-4.18a.78.78,0,0,1,.17-.74l1.8-2a.78.78,0,0,1,1.17,1l-1.51,1.7,1.08,3.76a.78.78,0,0,1-.54,1A.73.73,0,0,1,139.47,84.37Z"/><path d="M144.69,99.45a3.38,3.38,0,0,1-.59,0c-2.56-.42-4-3.53-4-3.66a.78.78,0,0,1,.1-.82.76.76,0,0,1,.78-.27l7,1.54a.79.79,0,0,1,.4,1.3A5.18,5.18,0,0,1,144.69,99.45Zm-2.24-2.86a3.41,3.41,0,0,0,1.91,1.27,2.42,2.42,0,0,0,1.76-.46Z"/><path class="cls-1" d="M155.31,235.06s71.3,4,89.83,18.39,19.56,164.7,19.56,164.7l-58.15,6.62L206,277.58Z"/><path class="cls-10" d="M118.44,120.27s2.05-7.19,3.07-7.19c1.35,0,8.85,3.62,15.64,3.57s8-2.17,10-1.89,2.77,5.51,2.77,5.51,12.59,4.18,27.24,7.58,37.65-1,47.33-5.75,26.15-14.9,26.15-14.9l17,44.71s-34.51,44.19-66.15,44.45-69.81-6-69.81-6Z"/><path class="cls-1" d="M69.87,237.36S64.64,293.55,73,298.84c19.49,12.36,72.82,9.25,73.08,11.55s-6,104.75-6,104.75l70.27,13.12s25.81-149.53,11.21-173.66-100.73-21.83-100.73-21.83Z"/><polygon class="cls-9" points="206.69 224.24 167.66 220.35 182.39 156.91 221.42 160.8 206.69 224.24"/><polygon class="cls-4" points="212.54 224.82 173.52 220.93 188.25 157.49 227.27 161.38 212.54 224.82"/><path class="cls-10" d="M161.84,185.11l1.46,48.11s-30.85,8.63-54.12,10.72-39.22,0-39.22,0V225.38Z"/><path class="cls-2" d="M156.81,191.39s4.66-9.67,9.37-13.07,11.89-3.38,11.89-3.38l-1.43,6.91s10.94,1.44,12.79,0,9.7-7.71,11.79-7.19-2.35,7.19-2.35,7.19,4.71-4.31,6.28-1.7-4.45,13.07-4.45,13.07,5.49-5.48,3.66,3.15-17.74,17-23.25,17.77-27.55.86-27.55.86Z"/><path d="M176.64,182.63l-.16,0-5.75-1.18a.79.79,0,0,1-.61-.93.8.8,0,0,1,.93-.61l5.75,1.18a.78.78,0,0,1-.16,1.55Z"/><path d="M182.39,191.65a.78.78,0,0,1,0-1.57c.05,0,5.37-.27,8.32-1.75s7.55-6.94,7.59-7a.78.78,0,0,1,1.2,1c-.2.24-4.85,5.77-8.1,7.39s-8.71,1.9-8.94,1.91Z"/><path d="M183.7,201.59a.78.78,0,0,1,0-1.57,22.72,22.72,0,0,0,8.17-1.94,40,40,0,0,0,8.32-5.44.78.78,0,1,1,1,1.16,40.67,40.67,0,0,1-8.68,5.69,24,24,0,0,1-8.82,2.1Z"/><rect class="cls-11" x="427.13" y="121.57" width="19.57" height="19.57"/><polygon class="cls-1" points="472.63 114.57 478.72 125.12 484.81 135.67 472.63 135.67 460.45 135.67 466.54 125.12 472.63 114.57"/><circle class="cls-4" cx="455.72" cy="141.14" r="13.59"/><circle class="cls-1" cx="456.47" cy="184.48" r="4.17"/><circle class="cls-1" cx="456.47" cy="224.82" r="4.17"/><circle class="cls-1" cx="312.84" cy="216.27" r="4.17"/><path class="cls-3" d="M516,249.17v3.73H285.2v-3.73a14.09,14.09,0,0,1,14.09-14.09H501.92A14.08,14.08,0,0,1,516,249.17Z"/><path class="cls-4" d="M493.25,249.24a.78.78,0,0,1-.58-1.31l7.32-8.11a.78.78,0,1,1,1.16,1L493.83,249A.77.77,0,0,1,493.25,249.24Z"/><path class="cls-4" d="M500.57,249.24A.77.77,0,0,1,500,249l-7.32-8.11a.78.78,0,1,1,1.16-1l7.32,8.11a.78.78,0,0,1-.58,1.31Z"/><path class="cls-4" d="M364.6,324.45H313.35a.79.79,0,0,1-.78-.78V272.42a.79.79,0,0,1,.78-.78H364.6a.79.79,0,0,1,.78.78v51.25A.79.79,0,0,1,364.6,324.45Zm-50.47-1.57h49.68V273.2H314.14Z"/><path class="cls-4" d="M436.91,348.55H339a.79.79,0,0,1-.78-.78V296.51a.79.79,0,0,1,.78-.78h97.94a.79.79,0,0,1,.78.78v51.25A.79.79,0,0,1,436.91,348.55ZM339.76,347h96.37V297.3H339.76Z"/><path class="cls-4" d="M212.35,412.53a.81.81,0,0,1-.77-.93c.22-1.19,22.07-118.83,12.76-143.43-9.2-24.31-66.28-25-66.86-25a.78.78,0,0,1-.19-1.54l13.4-3.49a.78.78,0,1,1,.39,1.52l-8.16,2.12c14.81.77,54.95,4.79,62.89,25.78,9.46,25-11.78,139.42-12.69,144.27A.79.79,0,0,1,212.35,412.53Z"/><path class="cls-10" d="M121.51,119.74s-45,1-70.9,52,1.31,77.13,45.23,71.38,66-19.61,66-19.61l-5-43.24Z"/><path class="cls-9" d="M94.07,187.14a.78.78,0,0,1-.21-1.54c18-5.14,55.08-5.11,55.51-5.13a.78.78,0,0,1,0,1.57c-1.58,0-37.56.06-55.08,5.07A.74.74,0,0,1,94.07,187.14Z"/><path class="cls-9" d="M132.31,125.59c-7.15,0-14-4.47-14.31-4.67a.79.79,0,0,1,.86-1.31c.07,0,7.43,4.87,14.49,4.38a.75.75,0,0,1,.84.73.78.78,0,0,1-.73.84C133.08,125.58,132.7,125.59,132.31,125.59Z"/><path class="cls-9" d="M199.74,144.69a2.47,2.47,0,0,1-1.34-.4c-3.51-2.21-4.54-14-4.64-15.36a.79.79,0,0,1,1.4-.55c.84,1.06,8.14,10.47,7.05,14.44a2.43,2.43,0,0,1-1.53,1.69A2.61,2.61,0,0,1,199.74,144.69Zm-4.12-13.07c.6,4.61,1.86,10.23,3.62,11.33a.91.91,0,0,0,.88.09.87.87,0,0,0,.58-.63C201.24,140.42,198.33,135.43,195.62,131.62Z"/><path class="cls-9" d="M96.6,185.47c-6.85,0-15.15-.55-16.34-3.09a2.27,2.27,0,0,1,.68-2.61c5.57-6,23.12,3.61,23.87,4a.79.79,0,0,1-.34,1.47C102.78,185.35,99.85,185.47,96.6,185.47Zm-10.08-6.13a5.83,5.83,0,0,0-4.43,1.49c-.21.22-.53.63-.41.88.81,1.73,10.37,2.39,19.75,2.1C97.28,181.82,91,179.35,86.51,179.35Z"/><path class="cls-4" d="M146.05,311.17a.78.78,0,0,1-.7-1.13c1.6-3.22,7.07-13.7,10.38-13.7a2,2,0,0,1,1.8,1.4c2.31,5.54-9.71,12.55-11.09,13.33A.79.79,0,0,1,146.05,311.17Zm9.66-13.26c-1.38,0-4.76,5-7.64,10.3,3.82-2.56,9.22-7,8-9.87C156,298.17,155.87,297.88,155.71,297.9Z"/><path class="cls-9" d="M117.09,235.87a.78.78,0,0,1-.14-1.56c.22,0,22.67-4.31,40.15-14.55a.78.78,0,0,1,.79,1.35c-17.72,10.38-40.42,14.7-40.65,14.74Z"/></svg>